<svg version="1.1" xmlns="http://www.w3.org/2000/svg" viewBox="0 0 3850 1300">
    <rect width="3850" height="1300" fill="transparent"/>
    <rect x="15" y="15" width="3820" height="1270" rx="120" ry="120" fill="#000000" stroke="#A4A4A4" stroke-width="30"/>
    <path d="M0 0 C1.21171875 0.00064453 2.4234375 0.00128906 3.671875 0.00195312 C15.9323408 0.06077199 27.89654811 0.64524921 39.875 3.375 C40.86169678 3.59784668 41.84839355 3.82069336 42.86499023 4.05029297 C72.36391266 10.91915412 98.50994286 24.50822073 120.18896484 45.78222656 C121.55435925 47.11837247 122.94265271 48.43099909 124.33203125 49.7421875 C130.55676963 55.72788063 135.63196242 62.16830225 140.625 69.1875 C137.48259149 72.56808617 133.98174763 75.10596579 130.1875 77.6875 C96.89459219 100.9483084 74.37955209 138.35457552 67.27001953 178.17578125 C61.56664465 213.09094397 68.20474296 248.47012369 85.625 279.1875 C85.99318848 279.84266602 86.36137695 280.49783203 86.74072266 281.17285156 C96.02550671 297.447746 108.46385949 312.04236886 123.375 323.4375 C124.45950439 324.26677002 124.45950439 324.26677002 125.56591797 325.11279297 C135.74853693 332.7198467 146.83213688 339.40153698 158.625 344.1875 C152.81067106 366.72176224 143.12213323 387.52351716 132.625 408.1875 C132.2340918 408.96464355 131.84318359 409.74178711 131.44042969 410.54248047 C115.75189337 441.35112787 93.46615891 472.18999387 69.625 497.1875 C68.31595703 498.59322266 68.31595703 498.59322266 66.98046875 500.02734375 C52.63135731 515.00672363 35.90117393 524.69242449 15.625 529.1875 C14.85929687 529.38085938 14.09359375 529.57421875 13.3046875 529.7734375 C-14.6768126 534.09710953 -40.26381318 523.03508251 -65.19921875 511.9296875 C-79.55133466 505.74048981 -94.97779431 504.00034515 -110.45410156 504.00219727 C-112.47482914 504.00002703 -114.49499468 503.98186484 -116.515625 503.96289062 C-128.35130878 503.94551927 -139.90165687 505.01155885 -151.25 508.5 C-152.4558374 508.86327393 -152.4558374 508.86327393 -153.68603516 509.23388672 C-163.61099005 512.37201778 -173.20300075 516.45980514 -182.78076172 520.5168457 C-204.0555964 529.47168738 -228.72666152 536.02429532 -251.375 528.1875 C-256.89337451 525.87419297 -262.1464378 523.08647695 -267.375 520.1875 C-268.34308594 519.66414062 -269.31117188 519.14078125 -270.30859375 518.6015625 C-279.0901522 513.46050153 -286.13468727 506.24491284 -293.375 499.1875 C-294.24640625 498.35605469 -295.1178125 497.52460937 -296.015625 496.66796875 C-301.10577237 491.72910198 -305.64567346 486.4542097 -310.03515625 480.88671875 C-310.99006773 479.67567941 -311.94882266 478.46766649 -312.91015625 477.26171875 C-325.68750565 461.22206738 -337.59992763 444.62126843 -348.22802734 427.07568359 C-349.37640329 425.18518986 -350.54037677 423.30503825 -351.70703125 421.42578125 C-357.14913255 412.59807277 -361.93135992 403.55454626 -366.375 394.1875 C-366.79539551 393.30416992 -367.21579102 392.42083984 -367.64892578 391.51074219 C-379.39255204 366.70312521 -388.6200406 341.48030744 -396.375 315.1875 C-396.68066895 314.15657227 -396.98633789 313.12564453 -397.30126953 312.06347656 C-411.80811186 262.33795801 -417.00932342 207.15095699 -406.375 156.1875 C-406.11396484 154.90576904 -406.11396484 154.90576904 -405.84765625 153.59814453 C-398.47297775 117.78645142 -383.41528373 84.37850683 -358.3828125 57.40625 C-356.97667378 55.85238465 -355.62877022 54.24474406 -354.328125 52.6015625 C-351.39181772 48.97228671 -347.96239007 46.1583074 -344.375 43.1875 C-343.385 42.35992187 -342.395 41.53234375 -341.375 40.6796875 C-327.3803778 29.20463691 -311.98411219 20.31402531 -295.375 13.1875 C-294.46105469 12.79046875 -293.54710937 12.3934375 -292.60546875 11.984375 C-286.56987504 9.58914726 -280.29836908 8.09145191 -274 6.5625 C-273.15018555 6.3560083 -272.30037109 6.1495166 -271.42480469 5.93676758 C-250.82642526 1.12722187 -227.91612871 -0.79544641 -207.375 5.1875 C-206.5411377 5.41373047 -205.70727539 5.63996094 -204.84814453 5.87304688 C-188.27270695 10.39597482 -172.42422939 16.51891582 -156.53491211 22.99511719 C-140.24203646 29.64243504 -140.24203646 29.64243504 -122.875 31.5625 C-122.05040283 31.55307373 -121.22580566 31.54364746 -120.3762207 31.53393555 C-113.96201757 31.37555237 -108.42471825 30.33518389 -102.375 28.1875 C-101.36179687 27.83268555 -100.34859375 27.47787109 -99.3046875 27.11230469 C-90.85770139 24.12597172 -82.51299227 20.93591005 -74.1875 17.625 C-62.21661302 12.87194985 -50.42739252 8.26329957 -37.9375 5.0625 C-36.99068359 4.81113281 -36.04386719 4.55976563 -35.06835938 4.30078125 C-23.27493018 1.24233593 -12.19257793 -0.12244132 0 0 Z " fill="#FEFEFE" transform="translate(732.375,449.8125)"/>
    <path d="M0 0 C1.21558594 -0.00773438 2.43117188 -0.01546875 3.68359375 -0.0234375 C34.334458 0.0419859 61.93832959 11.59805417 83.75 32.9375 C94.66456043 43.9753668 102.15809016 56.44078735 108.66552734 70.45410156 C109.39149853 72.0164901 110.14099707 73.56790433 110.89453125 75.1171875 C128.12846973 112.86771941 127.89286169 161.7101726 117.5 201.25 C117.23147217 202.30646729 117.23147217 202.30646729 116.95751953 203.38427734 C111.61497865 224.1491753 102.52011055 244.54276339 87.5078125 260.13671875 C85.43526049 262.24858727 85.43526049 262.24858727 83.55859375 264.74609375 C68.19001662 283.43918282 41.01064585 294.44132251 17.37988281 297.02294922 C1.69257686 298.25974089 -15.33284068 299.00549888 -30.5 294.25 C-31.12938477 294.05664062 -31.75876953 293.86328125 -32.40722656 293.6640625 C-48.623517 288.55060449 -61.47455149 280.12946431 -73.5 268.25 C-74.48033203 267.37794922 -74.48033203 267.37794922 -75.48046875 266.48828125 C-81.73305432 260.80801473 -84.60943246 254.85754951 -89.5 247.25 C-89.83 294.44 -90.16 341.63 -90.5 390.25 C-110.63 390.25 -130.76 390.25 -151.5 390.25 C-151.5 262.54 -151.5 134.83 -151.5 3.25 C-132.03 3.25 -112.56 3.25 -92.5 3.25 C-92.17 18.43 -91.84 33.61 -91.5 49.25 C-88.53 45.29 -85.56 41.33 -82.5 37.25 C-61.50023016 11.86221856 -32.72387492 -0.20821129 0 0 Z " fill="#FDFDFD" transform="translate(1650.5,686.75)"/>
    <path d="M0 0 C0.68956787 -0.00467285 1.37913574 -0.0093457 2.08959961 -0.01416016 C28.6489194 -0.08377829 54.68760574 8.37602525 75.125 25.5 C76.13304687 26.34433594 77.14109375 27.18867187 78.1796875 28.05859375 C106.79343445 52.7869715 120.04942888 91.75347731 123.125 128.5 C123.45124353 134.76700294 123.41588111 141.03908637 123.375 147.3125 C123.37223053 148.14661407 123.36946106 148.98072815 123.36660767 149.84011841 C123.3199186 161.82915236 123.04032553 173.64206105 121.125 185.5 C120.95355469 186.69109375 120.78210937 187.8821875 120.60546875 189.109375 C116.46403646 213.58390388 106.3390557 238.54244925 90.125 257.5 C89.69719238 258.00321777 89.26938477 258.50643555 88.82861328 259.02490234 C69.66965617 281.35747136 43.96664252 294.22520897 14.75341797 297.29931641 C-0.27403546 298.44668467 -16.35199969 298.9465065 -30.875 294.5 C-31.50196777 294.31195801 -32.12893555 294.12391602 -32.77490234 293.93017578 C-57.81012833 286.19626596 -75.99023422 269.31891765 -89.875 247.5 C-90.205 294.69 -90.535 341.88 -90.875 390.5 C-110.675 390.5 -130.475 390.5 -150.875 390.5 C-150.875 262.79 -150.875 135.08 -150.875 3.5 C-131.735 3.5 -112.595 3.5 -92.875 3.5 C-92.545 19.01 -92.215 34.52 -91.875 50.5 C-88.905 46.21 -85.935 41.92 -82.875 37.5 C-77.57700879 30.82845551 -71.61683387 25.69036583 -64.875 20.5 C-64.10542969 19.8915625 -63.33585937 19.283125 -62.54296875 18.65625 C-44.00834225 4.76317391 -22.76093523 0.06661987 0 0 Z " fill="#FEFEFE" transform="translate(1970.875,686.5)"/>
    <path d="M0 0 C0.52400391 0.46889648 1.04800781 0.93779297 1.58789062 1.42089844 C2.10931641 1.8872168 2.63074219 2.35353516 3.16796875 2.83398438 C23.02640183 20.94020277 35.16813928 44.42231843 41.83789062 70.23339844 C42.0842627 71.16853271 42.33063477 72.10366699 42.58447266 73.06713867 C46.33594785 88.3232242 47.00115627 103.89988727 46.96289062 119.54589844 C46.96207489 120.81599762 46.96207489 120.81599762 46.96124268 122.11175537 C46.91987112 136.19827202 45.93379109 149.68829109 42.58789062 163.42089844 C42.3682666 164.33452148 42.14864258 165.24814453 41.92236328 166.18945312 C36.06780993 189.83140743 26.12495043 210.44479064 9.58789062 228.42089844 C8.78609375 229.30519531 7.98429687 230.18949219 7.15820312 231.10058594 C-10.55639869 249.74447834 -34.61460786 260.06559625 -59.41210938 265.42089844 C-60.15912109 265.60185059 -60.90613281 265.78280273 -61.67578125 265.96923828 C-70.10365903 267.80244836 -78.49910286 267.72401822 -87.08056641 267.68164062 C-89.64314762 267.67097734 -92.20501894 267.68155509 -94.76757812 267.69433594 C-109.93371535 267.70806103 -123.87544924 266.03299977 -138.41210938 261.42089844 C-139.39566406 261.13472656 -140.37921875 260.84855469 -141.39257812 260.55371094 C-171.44612778 251.38758108 -196.5543014 229.42287722 -211.34960938 201.92089844 C-215.58769612 193.72682082 -218.57543847 185.17877559 -221.41210938 176.42089844 C-221.97426991 174.87910795 -222.53669627 173.33741432 -223.09960938 171.79589844 C-225.15465326 165.48570486 -226.29257786 158.94882574 -227.41210938 152.42089844 C-227.6209375 151.23753906 -227.82976563 150.05417969 -228.04492188 148.83496094 C-234.43699813 105.17077808 -227.74781516 56.79176773 -201.39624023 20.55517578 C-181.27059963 -6.20574946 -153.21990988 -22.46252816 -120.41210938 -28.57910156 C-119.22359375 -28.8046875 -118.03507812 -29.03027344 -116.81054688 -29.26269531 C-76.5838353 -35.50774154 -31.25145863 -27.37809163 0 0 Z " fill="#FDFDFD" transform="translate(2996.412109375,716.5791015625)"/>
    <path d="M0 0 C22.44 0 44.88 0 68 0 C69.65 4.62 71.3 9.24 73 14 C73.99126052 16.33705948 74.98976384 18.67108022 76 21 C77.15172273 24.12957266 78.23166608 27.28285603 79.3125 30.4375 C81.48590024 36.71819489 83.70355746 42.97402498 86.0625 49.1875 C89.96347147 59.47967348 93.66374115 69.84323077 97.0625 80.3125 C98.29233827 84.05221228 99.67435839 87.64329876 101.25 91.25 C103.87666967 97.3788959 105.9269682 103.66520049 108 110 C110.9541332 119.10974768 110.9541332 119.10974768 114.5 128 C117.53629225 134.89320402 119.71819352 142.08363187 122.05859375 149.234375 C123.70871788 154.24078934 125.37307449 159.17130426 127.5 164 C130.53629225 170.89320402 132.71819352 178.08363187 135.05859375 185.234375 C136.70871788 190.24078934 138.37307449 195.17130426 140.5 200 C143.53282564 206.88533388 145.71383348 214.06702243 148.04980469 221.21020508 C150.08813448 227.39826848 152.29285982 233.3722616 154.9140625 239.3359375 C156.58312409 243.43054182 157.79114686 247.64696845 159.0078125 251.89453125 C159.90871627 254.71428911 161.00066475 257.36682829 162.19238281 260.07348633 C163.75150186 263.79265453 165.00594219 267.62400281 166.3125 271.4375 C168.46426238 277.65622975 170.65942705 283.84977947 173 290 C175.59128859 296.81676218 178.00410301 303.68868115 180.39453125 310.578125 C182.19397719 315.74657764 184.05565632 320.88440058 186 326 C188.59097172 332.81688816 191.00409917 339.68867009 193.39453125 346.578125 C195.41672661 352.38636893 197.53567367 358.14945583 199.72167969 363.89770508 C202.14695824 370.31141736 204.40028296 376.78338427 206.640625 383.26367188 C206.9190625 384.06740234 207.1975 384.87113281 207.484375 385.69921875 C207.87592773 386.83109619 207.87592773 386.83109619 208.27539062 387.98583984 C208.86390648 389.6217077 209.52335704 391.2319281 210.203125 392.83203125 C211 395 211 395 211 399 C189.55 399 168.1 399 146 399 C142.50014714 389.08375024 139.00839212 379.17606367 135.64453125 369.21484375 C135.26051147 368.08101257 134.8764917 366.9471814 134.48083496 365.7789917 C133.25706727 362.16549516 132.03469685 358.55152812 130.8125 354.9375 C124.11395433 335.11522337 124.11395433 335.11522337 117.3125 315.328125 C116.91462532 314.18018211 116.91462532 314.18018211 116.50871277 313.00904846 C115.32753644 309.60334337 114.14136065 306.19952338 112.9465332 302.79858398 C112.54781006 301.65204346 112.14908691 300.50550293 111.73828125 299.32421875 C111.39837158 298.35572998 111.05846191 297.38724121 110.70825195 296.3894043 C110 294 110 294 110 291 C59.51 291 9.02 291 -43 291 C-43.66 293.97 -44.32 296.94 -45 300 C-45.47681817 301.6323557 -45.98172345 303.25722271 -46.53369141 304.86572266 C-46.82281403 305.71603058 -47.11193665 306.5663385 -47.40982056 307.44241333 C-47.7205954 308.34055756 -48.03137024 309.23870178 -48.3515625 310.1640625 C-48.68304291 311.13479706 -49.01452332 312.10553162 -49.35604858 313.10568237 C-50.44122373 316.28034041 -51.53305957 319.45266326 -52.625 322.625 C-53.38197994 324.8351257 -54.13848379 327.04541451 -54.89453125 329.25585938 C-56.46451262 333.84474946 -58.03678479 338.43284606 -59.61035156 343.02050781 C-61.96902003 349.90262369 -64.31092408 356.79036189 -66.6484375 363.6796875 C-67.38720674 365.85595713 -68.12597627 368.03222666 -68.86474609 370.20849609 C-69.92893239 373.3437011 -70.99287578 376.47898724 -72.05596924 379.61456299 C-73.03595422 382.5039223 -74.01775138 385.39265958 -75 388.28125 C-75.29087494 389.14031952 -75.58174988 389.99938904 -75.88143921 390.88449097 C-77.88595813 396.77191625 -77.88595813 396.77191625 -79 399 C-100.45 399 -121.9 399 -144 399 C-142.15631613 392.8543871 -140.31775663 386.94389979 -138 381 C-137.51043261 379.71403056 -137.0221525 378.42757033 -136.53515625 377.140625 C-136.29450439 376.50576172 -136.05385254 375.87089844 -135.8059082 375.21679688 C-133.38099857 368.80133809 -131.06009845 362.37382167 -128.95703125 355.84375 C-127.72859146 352.19352891 -126.36890613 348.59948031 -125 345 C-121.83397884 336.66054328 -118.6925199 328.33750471 -115.95703125 319.84375 C-114.72859146 316.19352891 -113.36890613 312.59948031 -112 309 C-108.83397884 300.66054328 -105.6925199 292.33750471 -102.95703125 283.84375 C-101.72859146 280.19352891 -100.36890613 276.59948031 -99 273 C-95.83397884 264.66054328 -92.6925199 256.33750471 -89.95703125 247.84375 C-88.72859146 244.19352891 -87.36890613 240.59948031 -86 237 C-82.83397884 228.66054328 -79.6925199 220.33750471 -76.95703125 211.84375 C-75.72859146 208.19352891 -74.36890613 204.59948031 -73 201 C-69.83397884 192.66054328 -66.6925199 184.33750471 -63.95703125 175.84375 C-62.72859146 172.19352891 -61.36890613 168.59948031 -60 165 C-56.83397884 156.66054328 -53.6925199 148.33750471 -50.95703125 139.84375 C-49.72859146 136.19352891 -48.36890613 132.59948031 -47 129 C-43.83397884 120.66054328 -40.6925199 112.33750471 -37.95703125 103.84375 C-36.72859146 100.19352891 -35.36890613 96.59948031 -34 93 C-30.83397884 84.66054328 -27.6925199 76.33750471 -24.95703125 67.84375 C-23.72859146 64.19352891 -22.36890613 60.59948031 -21 57 C-17.83397884 48.66054328 -14.6925199 40.33750471 -11.95703125 31.84375 C-10.72859478 28.19353877 -9.36453219 24.60109292 -8 21 C-7.48760158 19.63176476 -6.97587888 18.26327626 -6.46484375 16.89453125 C-5.95572917 15.53385417 -5.44661458 14.17317708 -4.9375 12.8125 C-4.68162109 12.12736328 -4.42574219 11.44222656 -4.16210938 10.73632812 C-2.81523897 7.13890306 -1.42687092 3.56717729 0 0 Z " fill="#FEFEFE" transform="translate(1251,582)"/>
    <path d="M0 0 C11.09912606 9.59554987 19.23603655 20.30811829 25.9375 33.3125 C26.48148438 34.31410156 27.02546875 35.31570313 27.5859375 36.34765625 C30.9337932 42.93290541 32.99820028 49.60657134 34.75 56.75 C34.95713623 57.58345947 35.16427246 58.41691895 35.37768555 59.27563477 C37.09103572 66.76657791 37.37287522 73.40775305 37.9375 81.3125 C17.8075 81.3125 -2.3225 81.3125 -23.0625 81.3125 C-25.0425 72.8975 -25.0425 72.8975 -27.0625 64.3125 C-35.13967168 45.02619212 -48.2521066 33.74333063 -67.0625 25.3125 C-80.13462955 20.01476117 -93.31493982 18.93939701 -107.3125 19 C-107.99159424 19.00215515 -108.67068848 19.0043103 -109.37036133 19.00653076 C-133.35138779 19.12845146 -154.84998988 24.21866216 -172.8046875 41.01953125 C-183.54811531 51.93024427 -187.48050088 63.61827158 -187.42822266 78.74731445 C-187.19673779 90.32899068 -183.16253825 99.46855464 -175.4609375 108.109375 C-155.50443719 127.27464842 -124.06649644 132.71753704 -98.07684326 138.93945312 C-91.88929569 140.4232862 -85.70789492 141.93264249 -79.52734375 143.4453125 C-78.86367231 143.60747379 -78.20000088 143.76963509 -77.51621819 143.93671036 C-68.54206002 146.13490525 -59.62121095 148.47738537 -50.75 151.0625 C-49.81981552 151.33353546 -48.88963104 151.60457092 -47.93125916 151.88381958 C-16.23197329 161.32049364 16.20448204 176.50223637 32.99267578 206.55517578 C38.55245172 216.89607169 41.28638978 226.79036393 42.9375 238.3125 C43.12054687 239.56804687 43.30359375 240.82359375 43.4921875 242.1171875 C47.04737801 271.68291076 39.9919352 302.90690166 21.5625 326.5625 C2.32486575 350.45759833 -23.38095349 363.89272855 -52.6875 371.5 C-53.5854126 371.73807373 -54.4833252 371.97614746 -55.40844727 372.22143555 C-72.37809689 376.41570137 -89.52876554 377.80268429 -106.95947266 377.64868164 C-109.82613014 377.62488686 -112.69186075 377.62818496 -115.55859375 377.63476562 C-131.26638604 377.61257687 -146.68243475 376.66264764 -161.9375 372.6875 C-162.94288818 372.42952637 -163.94827637 372.17155273 -164.98413086 371.90576172 C-199.32947664 362.73004084 -230.2985253 343.46641514 -248.4375 312.25 C-251.96220667 305.81326574 -254.7061909 299.25551765 -257.0625 292.3125 C-257.50722656 291.03632812 -257.50722656 291.03632812 -257.9609375 289.734375 C-261.25067552 279.63715929 -262.0625 269.92167001 -262.0625 259.3125 C-241.9325 259.3125 -221.8025 259.3125 -201.0625 259.3125 C-199.7425 264.5925 -198.4225 269.8725 -197.0625 275.3125 C-189.5778645 294.18244963 -175.14276266 307.04972672 -156.86425781 315.29125977 C-125.78055746 328.46773367 -89.14449255 327.77599889 -58.0625 315.3125 C-45.07063646 309.49961685 -34.38567309 301.64525887 -27.0625 289.3125 C-26.57910156 288.53261719 -26.09570312 287.75273438 -25.59765625 286.94921875 C-18.98860247 275.24448872 -18.85469302 261.1285538 -22.0625 248.3125 C-26.59065011 234.23624127 -36.34264449 224.97462903 -49.171875 218.25390625 C-50.46596537 217.60122016 -51.76296663 216.95428037 -53.0625 216.3125 C-54.09987305 215.79792236 -54.09987305 215.79792236 -55.15820312 215.27294922 C-66.15680888 209.9097677 -77.18996977 206.18728091 -89.0625 203.3125 C-90.50834473 202.96106934 -90.50834473 202.96106934 -91.98339844 202.60253906 C-96.23515643 201.57339147 -100.48856783 200.55177743 -104.74560547 199.54467773 C-111.87481036 197.85652456 -118.95809578 196.04298839 -126.03100586 194.13452148 C-131.07887938 192.78938921 -136.1466645 191.60710039 -141.24975586 190.49047852 C-168.89659959 184.44085669 -197.15143298 174.85006433 -219.0625 156.3125 C-219.92875 155.60738281 -220.795 154.90226563 -221.6875 154.17578125 C-239.3465028 139.1817804 -249.91634045 116.8488435 -251.89038086 93.87939453 C-254.03107347 61.95422836 -246.33578755 34.41990581 -225.42407227 10.00390625 C-208.39746402 -9.10382946 -184.81099994 -21.80989097 -160.21777344 -28.12280273 C-158.63257476 -28.53813628 -157.05319958 -28.97585793 -155.47753906 -29.42602539 C-104.3225913 -43.97034396 -41.22401838 -34.53934404 0 0 Z " fill="#FDFDFD" transform="translate(2507.0625,609.6875)"/>
    <path d="M0 0 C1.12196777 0.29632324 1.12196777 0.29632324 2.26660156 0.59863281 C33.18840116 9.11205267 57.33176259 29.95167487 73.06640625 57.46484375 C75.6871594 62.18473769 77.97009397 66.99746005 80 72 C80.33386719 72.78632812 80.66773437 73.57265625 81.01171875 74.3828125 C91.97446575 102.0280006 91 130.48976828 91 160 C23.02 160 -44.96 160 -115 160 C-114.39418626 175.99468152 -114.39418626 175.99468152 -111 191 C-110.73445313 191.89589844 -110.46890625 192.79179688 -110.1953125 193.71484375 C-104.15806434 212.33414449 -91.08591431 226.91722167 -74 236 C-61.40042155 242.41255596 -49.89110645 244.38918353 -35.91552734 244.42553711 C-33.76673341 244.43740756 -31.6208456 244.48671125 -29.47265625 244.53710938 C-11.46744647 244.74646326 4.40059314 237.50971579 17.265625 224.94140625 C21.28746437 220.78264731 24.20405506 216.03852578 27 211 C28.32 208.69 29.64 206.38 31 204 C49.81 204 68.62 204 88 204 C84.83291766 223.00249407 77.90178828 238.62485935 65 253 C64.33871094 253.73718262 64.33871094 253.73718262 63.6640625 254.48925781 C43.13918133 277.02894017 11.01106105 291.23954698 -19.29870605 293.14447021 C-25.23981982 293.40682027 -31.17887694 293.44962746 -37.125 293.4375 C-37.95044312 293.43754028 -38.77588623 293.43758057 -39.62634277 293.43762207 C-55.37578593 293.39297946 -69.9002752 291.78771762 -85 287 C-86.20398437 286.65195312 -87.40796875 286.30390625 -88.6484375 285.9453125 C-103.43007089 281.45194386 -116.06124109 273.72205952 -128 264 C-129.19882813 263.03126953 -129.19882813 263.03126953 -130.421875 262.04296875 C-136.40044824 256.98179727 -141.25040844 251.2103315 -146 245 C-146.60714844 244.20851563 -147.21429687 243.41703125 -147.83984375 242.6015625 C-162.97667455 221.93858713 -170.62474356 197.14469453 -174 172 C-174.09788818 171.27176025 -174.19577637 170.54352051 -174.29663086 169.79321289 C-175.22555282 161.86381575 -175.19957334 153.90970792 -175.1875 145.9375 C-175.18689575 145.20223083 -175.1862915 144.46696167 -175.18566895 143.70941162 C-175.16176938 133.00736025 -174.90706047 122.5588659 -173 112 C-172.86577637 111.24654297 -172.73155273 110.49308594 -172.59326172 109.71679688 C-165.80709957 72.47181392 -148.37218861 38.68189697 -116.9453125 16.61328125 C-105.14402658 8.6159334 -92.46942595 3.10345895 -78.75 -0.625 C-77.62513184 -0.93473755 -77.62513184 -0.93473755 -76.47753906 -1.25073242 C-51.36285764 -7.79533545 -24.92436837 -6.61106516 0 0 Z " fill="#FCFCFC" transform="translate(3429,691)"/>
    <path d="M0 0 C19.8 0 39.6 0 60 0 C60 22.77 60 45.54 60 69 C78.15 69 96.3 69 115 69 C115 84.51 115 100.02 115 116 C96.85 116 78.7 116 60 116 C60.08551063 137.86221865 60.17913695 159.72435354 60.28752708 181.58646965 C60.33759786 191.73796973 60.38404135 201.88946196 60.421875 212.04101562 C60.45486925 220.89156909 60.49474136 229.74206062 60.54279006 238.59254563 C60.56798124 243.27655704 60.58978415 247.96052775 60.60334396 252.64458847 C60.61623151 257.0588246 60.63835729 261.47292065 60.66738319 265.88707924 C60.67640688 267.5018709 60.68213694 269.11668509 60.68421364 270.73150063 C60.63330651 288.64443698 60.63330651 288.64443698 69 304 C78.69765297 312.75779233 90.12713459 312.15019028 102.5 312.0625 C108.6875 312.0315625 108.6875 312.0315625 115 312 C115 327.51 115 343.02 115 359 C85.03947109 363.99342149 49.9938565 365.73671144 23.46875 348.33984375 C9.06338939 337.79992157 3.25185378 321.52511081 0.35998249 304.54928374 C-0.66043784 297.32298518 -0.51835663 290.04962319 -0.45410156 282.76879883 C-0.4529694 280.93350754 -0.45361411 279.09821445 -0.45587158 277.26292419 C-0.45700529 272.34668625 -0.43371715 267.43084976 -0.40557575 262.51470399 C-0.38033467 257.35249076 -0.3782024 252.1902653 -0.37347412 247.02799988 C-0.36111037 237.282071 -0.3283794 227.53632458 -0.28807616 217.79047555 C-0.24315132 206.68265424 -0.22131965 195.57482359 -0.20129442 184.46693385 C-0.15963986 161.64449854 -0.0863714 138.8223129 0 116 C-14.19 116 -28.38 116 -43 116 C-43 100.49 -43 84.98 -43 69 C-28.81 69 -14.62 69 0 69 C0 46.23 0 23.46 0 0 Z " fill="#FEFEFE" transform="translate(2620,621)"/>
    <path d="M0 0 C110.67273622 0 110.67273622 0 135.85546875 23.734375 C153.55087574 42.42897619 161.75103864 64.7945808 161.09765625 90.48339844 C160.01118514 118.48175884 155.9008459 146.71302553 136 168 C135.27425781 168.77988281 134.54851562 169.55976563 133.80078125 170.36328125 C100.30726331 203.28814863 37.98037217 192 0 192 C0 128.64 0 65.28 0 0 Z " fill="#FCFCFC" transform="translate(1147,281)"/>
    <path d="M0 0 C1.0842627 0.00757324 2.16852539 0.01514648 3.28564453 0.02294922 C21.45968825 0.39176036 35.9090923 5.49755064 49.8125 17.4375 C50.70195312 18.18386719 50.70195312 18.18386719 51.609375 18.9453125 C69.16773435 34.97335613 76.66793577 61.49997037 77.8125 84.4375 C78.40810656 101.86536513 78.79219719 119.35814665 74.8125 136.4375 C74.54566406 137.654375 74.27882813 138.87125 74.00390625 140.125 C69.40725593 158.42988306 58.47090367 178.52964058 41.98535156 188.54785156 C23.05348184 199.23384025 0.72112187 203.11707944 -20.51586914 197.34399414 C-40.96223432 191.14851949 -53.96015326 178.29037198 -64.328125 160.125 C-68.55168358 152.05276154 -71.03335596 143.83187092 -72.875 134.9375 C-73.08705078 133.96941406 -73.29910156 133.00132812 -73.51757812 132.00390625 C-80.62304344 98.60597782 -77.7533108 59.75413296 -59.1875 30.4375 C-51.98052387 20.09535916 -43.45053522 12.86670546 -32.3125 7.125 C-31.68915771 6.79927002 -31.06581543 6.47354004 -30.42358398 6.13793945 C-20.72155611 1.38398289 -10.71525531 -0.10612499 0 0 Z " fill="#000000" transform="translate(2904.1875,735.5625)"/>
    <path d="M0 0 C20.39928159 13.2418244 30.22527814 35.99655173 35.43041992 58.8996582 C37.17174869 67.81424984 37.07800674 76.86046248 37.07177734 85.91064453 C37.07136948 86.90785019 37.07136948 86.90785019 37.07095337 87.92520142 C37.04542058 101.48393179 36.13542751 114.26232086 31.88427734 127.22314453 C31.48466797 128.45806641 31.08505859 129.69298828 30.67333984 130.96533203 C24.17006694 150.09438075 12.23720902 167.08015315 -5.94384766 176.72314453 C-23.51964217 184.97100341 -42.97947764 187.28824862 -61.72119141 181.48095703 C-71.45389322 177.87459341 -79.35424136 173.10263932 -87.11572266 166.22314453 C-87.72931641 165.70365234 -88.34291016 165.18416016 -88.97509766 164.64892578 C-94.96606067 159.19385166 -99.01506364 152.1320844 -103.11572266 145.22314453 C-103.61330078 144.38783203 -104.11087891 143.55251953 -104.62353516 142.69189453 C-119.9927545 114.46666152 -119.34914058 76.62989674 -110.99072266 46.47314453 C-107.05857965 33.43539192 -100.28140422 21.28629908 -91.11572266 11.22314453 C-90.60009766 10.61599609 -90.08447266 10.00884766 -89.55322266 9.38330078 C-79.97727248 -1.17418429 -67.59066229 -6.30744572 -54.11572266 -9.77685547 C-53.47231934 -9.95498779 -52.82891602 -10.13312012 -52.16601562 -10.31665039 C-34.60287832 -14.25884065 -15.12233949 -9.00945824 0 0 Z " fill="#000000" transform="translate(1675.11572265625,748.77685546875)"/>
    <path d="M0 0 C3.20546952 2.13858885 6.12453443 4.43781473 9 7 C9.66257812 7.56976562 10.32515625 8.13953125 11.0078125 8.7265625 C27.9711088 24.35940419 36.71276823 49.4686062 38.12521362 71.99716187 C38.30093439 76.33137206 38.32840018 80.66315966 38.31567383 85.00048828 C38.31252272 87.23390026 38.33604514 89.46596991 38.36132812 91.69921875 C38.47995144 119.0022579 30.33635798 146.10768806 11.25 166.1875 C-3.61977881 180.56086738 -21.11603474 185.54731185 -41.32958984 185.49169922 C-60.8000398 184.98560121 -77.7867054 175.88930954 -91.125 161.875 C-103.12053078 147.73137618 -110.33401032 129.19025265 -113 111 C-113.18304687 109.84242188 -113.36609375 108.68484375 -113.5546875 107.4921875 C-114.3245669 101.08958768 -114.2443311 94.62736957 -114.25 88.1875 C-114.25067474 87.49914062 -114.25134949 86.81078125 -114.25204468 86.1015625 C-114.20689046 57.04081134 -107.10026151 30.44955373 -86.8515625 8.69140625 C-77.29034555 -0.42551624 -65.68422148 -5.80184159 -53 -9 C-52.0562854 -9.2626062 -52.0562854 -9.2626062 -51.09350586 -9.53051758 C-33.87488838 -13.3919055 -14.80624647 -8.85076367 0 0 Z " fill="#000000" transform="translate(1994,748)"/>
    <path d="M0 0 C1.00973877 -0.00563965 2.01947754 -0.0112793 3.05981445 -0.01708984 C9.77166017 0.04772706 14.95994063 0.94198813 21.8125 2.3125 C21.8125 20.7925 21.8125 39.2725 21.8125 58.3125 C18.1825 57.6525 14.5525 56.9925 10.8125 56.3125 C-8.53031131 53.51573157 -26.62776707 55.18742845 -43.1875 66.3125 C-55.32343575 75.56043023 -64.11752399 88.25140875 -66.73669338 103.51247501 C-67.2030239 107.44335699 -67.34025375 111.30233507 -67.34571838 115.25352478 C-67.35065636 116.02313005 -67.35559434 116.79273531 -67.36068195 117.58566195 C-67.37596267 120.14817038 -67.38439182 122.71065394 -67.39282227 125.27319336 C-67.40240821 127.11656917 -67.41241871 128.95994282 -67.42282104 130.80331421 C-67.44979852 135.79652821 -67.47084674 140.78975159 -67.49082303 145.78299785 C-67.51272684 151.00537868 -67.54009399 156.22773083 -67.56687927 161.4500885 C-67.61674681 171.33443614 -67.66170763 181.21879975 -67.70490164 191.10317856 C-67.75432483 202.35828476 -67.80922408 213.61336217 -67.86458123 224.86844051 C-67.97831009 248.01643478 -68.08444602 271.16445558 -68.1875 294.3125 C-87.9875 294.3125 -107.7875 294.3125 -128.1875 294.3125 C-128.1875 198.2825 -128.1875 102.2525 -128.1875 3.3125 C-109.0475 3.3125 -89.9075 3.3125 -70.1875 3.3125 C-69.8575 18.8225 -69.5275 34.3325 -69.1875 50.3125 C-67.8675 46.6825 -66.5475 43.0525 -65.1875 39.3125 C-56.21846161 20.81919703 -41.49286096 9.17709849 -22.3203125 2.28125 C-14.92579211 0.16292586 -7.65159147 0.04078363 0 0 Z " fill="#FDFDFD" transform="translate(3220.1875,686.6875)"/>
    <path d="M0 0 C9.9 0 19.8 0 30 0 C30 66.33 30 132.66 30 201 C20.76 201 11.52 201 2 201 C2 193.41 2 185.82 2 178 C-0.99558059 180.99558059 -3.662865 183.7224342 -6.3125 186.9375 C-14.65545673 196.46207721 -26.33087477 202.59231942 -39 204 C-55.63256876 205.04890073 -70.5557071 201.75552378 -83.375 190.625 C-96.50877388 178.01573785 -105.07422815 159.62792843 -105.94921875 141.328125 C-105.96597656 140.22984375 -105.98273437 139.1315625 -106 138 C-106.02054443 136.9181543 -106.02054443 136.9181543 -106.04150391 135.81445312 C-106.44647221 111.90668588 -103.94111064 89.40658676 -87.578125 70.5390625 C-75.04763835 58.19843171 -60.97185284 53.71106553 -43.80126953 53.68310547 C-30.57103181 53.87692881 -18.74953257 58.26289565 -9.125 67.5 C-2 75.09663121 -2 75.09663121 -2 79 C-1.34 79 -0.68 79 0 79 C0 52.93 0 26.86 0 0 Z " fill="#FAFAFA" transform="translate(2400,272)"/>
    <path d="M0 0 C1.57007812 0.7425 1.57007812 0.7425 3.171875 1.5 C19.79433093 10.11267147 30.33105238 25.20113451 36.30859375 42.59765625 C37.82393222 47.86281535 38.18550139 52.8805486 38.23828125 58.34375 C38.246353 59.14929321 38.25442474 59.95483643 38.26274109 60.78479004 C38.27653939 62.48931761 38.28728047 64.19387232 38.29516602 65.8984375 C38.30662713 67.61857365 38.32698477 69.33867591 38.35668945 71.05859375 C38.71326123 91.74374069 33.30246755 108.54844531 19 124 C5.89663414 137.28216423 -12.02862681 144.16874026 -30.5 144.3125 C-47.71685532 144.34071407 -63.0170436 138.42500163 -76 127 C-76.75023437 126.35546875 -77.50046875 125.7109375 -78.2734375 125.046875 C-90.18702339 114.06848527 -98.32962746 96.80365311 -99.17700195 80.61938477 C-99.23209692 77.3125892 -99.27659701 74.00663986 -99.29516602 70.69946289 C-99.30659214 69.2908313 -99.32689242 67.88223971 -99.35668945 66.47387695 C-99.78080832 46.35073969 -93.83622115 29.07992642 -80 14 C-59.74758057 -6.85923349 -26.08838705 -13.59022953 0 0 Z " fill="#FCFCFC" transform="translate(2067,332)"/>
    <path d="M0 0 C1.14283447 0.00499512 2.28566895 0.00999023 3.46313477 0.01513672 C12.93491825 0.20924436 20.69558855 1.66278652 29.375 5.5 C30.88900391 6.16902344 30.88900391 6.16902344 32.43359375 6.8515625 C48.36666351 14.76285095 61.28916336 29.90783526 67.0234375 46.62109375 C69.78141093 55.24466061 70.04358248 63.51006751 69.86206055 72.50292969 C69.81198618 75.02588828 69.80052189 77.54689759 69.79492188 80.0703125 C69.78085366 81.70314552 69.76465569 83.33596189 69.74609375 84.96875 C69.74073105 85.70847046 69.73536835 86.44819092 69.72984314 87.21032715 C69.35393425 103.8701354 61.21492344 119.43106217 49.9375 131.375 C34.83368254 145.3728171 16.43901502 151.46572452 -3.90234375 150.84765625 C-19.17746352 149.98407805 -33.2188872 143.53737926 -44.625 133.5 C-45.37523437 132.85546875 -46.12546875 132.2109375 -46.8984375 131.546875 C-58.97760108 120.41590515 -66.83262836 103.48816716 -67.83203125 87.10644531 C-67.92922591 83.31889089 -67.94700989 79.53874064 -67.9375 75.75 C-67.96166992 73.84734375 -67.96166992 73.84734375 -67.98632812 71.90625 C-67.99230078 60.19985357 -66.57757819 48.75702127 -61 38.3125 C-60.65300049 37.64597412 -60.30600098 36.97944824 -59.94848633 36.29272461 C-50.78544784 19.29904389 -36.10404852 7.96457867 -17.98046875 1.8359375 C-12.00318167 0.11975937 -6.18807603 -0.03557152 0 0 Z " fill="#FCFCFC" transform="translate(1407.625,325.5)"/>
    <path d="M0 0 C3.5654804 2.7986579 6.81940591 5.77364197 10 9 C10.95132813 9.93585938 10.95132813 9.93585938 11.921875 10.890625 C24.82746027 24.48146259 28.71083756 41.65530623 28.46655273 59.77783203 C28.43743879 62.1299454 28.44602786 64.47981186 28.45898438 66.83203125 C28.44434454 78.75011269 26.89966236 89.42779682 21.3125 100.125 C20.96509766 100.80167725 20.61769531 101.47835449 20.25976562 102.17553711 C11.12992667 119.41736135 -3.8500837 130.53591104 -22.28125 136.30859375 C-41.10981029 141.09689141 -60.44794167 137.93178302 -77.1015625 128.22265625 C-82.35754808 124.8376285 -86.68328022 120.48223818 -91 116 C-91.67546875 115.34386719 -92.3509375 114.68773437 -93.046875 114.01171875 C-107.650654 98.92330107 -109.68568818 78.26864255 -109.47070312 58.37573242 C-109.0813908 37.59349003 -102.57363512 20.95037325 -87.9140625 5.8515625 C-63.78258549 -16.88603858 -26.95507495 -18.4377934 0 0 Z " fill="#FCFCFC" transform="translate(2656,338)"/>
    <path d="M0 0 C9.57 0 19.14 0 29 0 C32.78601924 14.91691579 36.45491849 29.80390991 39.72680664 44.84008789 C41.52135333 53.0173557 43.50135035 61.1361356 45.5625 69.25 C47.81025259 78.12036303 49.97108663 87.00016914 51.9375 95.9375 C52.14898682 96.88463867 52.36047363 97.83177734 52.57836914 98.80761719 C52.76778076 99.68450195 52.95719238 100.56138672 53.15234375 101.46484375 C53.31726318 102.224021 53.48218262 102.98319824 53.65209961 103.76538086 C54.03232387 106.20762134 54.05898367 108.53219918 54 111 C54.99 111 55.98 111 57 111 C57.11085938 109.88367188 57.22171875 108.76734375 57.3359375 107.6171875 C57.96178246 102.64313746 59.25598039 97.93900439 60.625 93.125 C61.16989291 91.17074626 61.71413624 89.21631131 62.2578125 87.26171875 C62.54301758 86.24126465 62.82822266 85.22081055 63.12207031 84.16943359 C64.61808049 78.76865379 66.05423658 73.35190004 67.5 67.9375 C69.63194475 59.97667773 71.82972031 52.04021919 74.125 44.125 C76.34074489 36.48002371 78.34192734 28.80047355 80.2355957 21.06982422 C81.97717341 13.98802606 83.94634425 6.99764183 86 0 C95.24 0 104.48 0 114 0 C117.36855037 10.10565111 117.36855037 10.10565111 118.2109375 13.65625 C118.49578003 14.83344604 118.49578003 14.83344604 118.78637695 16.03442383 C118.98062256 16.84806396 119.17486816 17.6617041 119.375 18.5 C121.04341354 25.33365621 122.87247874 32.06876345 124.91577148 38.79980469 C127.13186264 46.22798644 129.02233645 53.74008511 130.9375 61.25 C134.2497021 74.23257801 137.71899144 87.16309216 141.60205078 99.98852539 C142.73711897 103.79625415 143.19424806 107.01791481 143 111 C143.99 111 144.98 111 146 111 C146.1139209 110.34660645 146.2278418 109.69321289 146.34521484 109.02001953 C147.60460153 101.93111359 149.05587037 94.90137275 150.625 87.875 C150.88224854 86.7197583 151.13949707 85.5645166 151.40454102 84.37426758 C153.79736085 73.72717417 156.36501382 63.12534773 158.95410156 52.5246582 C161.30848542 42.88147494 163.6158524 33.22844497 165.875 23.5625 C166.16109131 22.34328857 166.44718262 21.12407715 166.74194336 19.86791992 C167.01014893 18.71654541 167.27835449 17.5651709 167.5546875 16.37890625 C167.78655762 15.3844751 168.01842773 14.39004395 168.25732422 13.36547852 C169.2373721 8.9243345 170.10806489 4.45967553 171 0 C180.57 0 190.14 0 200 0 C197.75167841 12.36576875 197.75167841 12.36576875 196.51953125 16.62890625 C196.24616943 17.58748535 195.97280762 18.54606445 195.69116211 19.53369141 C195.40120361 20.53319824 195.11124512 21.53270508 194.8125 22.5625 C194.18378329 24.76921458 193.55621514 26.97625666 192.9296875 29.18359375 C192.44967285 30.87137939 192.44967285 30.87137939 191.95996094 32.59326172 C190.4103621 38.09252475 188.9199153 43.60730468 187.4375 49.125 C187.14875 50.1984668 186.86 51.27193359 186.5625 52.37792969 C185.14206506 57.67736769 183.74060567 62.98114527 182.3671875 68.29296875 C181.97382202 69.81349854 181.97382202 69.81349854 181.57250977 71.36474609 C181.0881945 73.24319856 180.60661696 75.12236053 180.12866211 77.00244141 C178.88693754 81.82941434 177.52389181 86.59453138 176.03515625 91.3515625 C174.00415517 97.86967013 172.29040344 104.44309134 170.625 111.0625 C167.71365548 122.47989559 164.47103153 133.74031234 161 145 C151.1 145 141.2 145 131 145 C128.85261542 139.98943597 127.39082991 136.050967 126.1875 130.875 C124.67285887 124.55667639 122.99093136 118.30442212 121.1875 112.0625 C120.66924985 110.26693314 120.15102124 108.47136006 119.6328125 106.67578125 C119.23304199 105.29060303 119.23304199 105.29060303 118.82519531 103.87744141 C117.38098395 98.84150204 115.97206372 93.79572699 114.5625 88.75 C114.2730249 87.71415771 113.9835498 86.67831543 113.68530273 85.61108398 C113.09297139 83.49108382 112.50076874 81.37104768 111.90869141 79.25097656 C110.97602434 75.91422356 110.0410853 72.5781146 109.10546875 69.2421875 C108.79472412 68.13391602 108.48397949 67.02564453 108.16381836 65.88378906 C107.57503385 63.78411085 106.98602154 61.68449649 106.39672852 59.58496094 C105.99151978 58.13911621 105.99151978 58.13911621 105.578125 56.6640625 C105.31451172 55.73368164 105.05089844 54.80330078 104.77929688 53.84472656 C104.23551648 51.85972369 103.72361506 49.86583214 103.23632812 47.86621094 C102.98818359 46.8662207 102.74003906 45.86623047 102.484375 44.8359375 C102.16291504 43.47927979 102.16291504 43.47927979 101.83496094 42.09521484 C101.55942383 41.40379395 101.28388672 40.71237305 101 40 C99.515 39.505 99.515 39.505 98 39 C97.90074219 40.06734375 97.80148437 41.1346875 97.69921875 42.234375 C96.96812953 48.04736366 95.36784049 53.61246086 93.8125 59.25 C93.49933838 60.39952148 93.18617676 61.54904297 92.86352539 62.73339844 C90.75526204 70.4155197 88.52358373 78.05332342 86.19824219 85.67211914 C83.83096265 93.45984171 81.70577214 101.30712374 79.58203125 109.1640625 C77.83158296 115.63771278 76.047344 122.10172626 74.25 128.5625 C73.80926147 130.16001099 73.80926147 130.16001099 73.35961914 131.78979492 C73.08110107 132.78857666 72.80258301 133.7873584 72.515625 134.81640625 C72.27102539 135.69756104 72.02642578 136.57871582 71.77441406 137.48657227 C70.98829777 140.0379806 69.99152709 142.52118227 69 145 C59.1 145 49.2 145 39 145 C37.39125 138.998125 37.39125 138.998125 35.75 132.875 C32.75015442 121.72095385 29.66256586 110.60540608 26.37890625 99.53125 C23.26818968 89.00469371 20.29771759 78.48175823 17.70556641 67.81494141 C16.33096062 62.19673931 14.71641803 56.69580261 12.9609375 51.18359375 C11.67607994 46.92685022 10.62565624 42.62093577 9.57226562 38.30297852 C8.28799036 33.07030638 6.88938089 27.87604666 5.4375 22.6875 C5.22593262 21.93049805 5.01436523 21.17349609 4.79638672 20.39355469 C3.87440499 17.10210155 2.94685039 13.81228906 2.015625 10.5234375 C1.74234375 9.54632813 1.4690625 8.56921875 1.1875 7.5625 C0.95417969 6.73878906 0.72085937 5.91507812 0.48046875 5.06640625 C0 3 0 3 0 0 Z " fill="#FCFCFC" transform="translate(1498,328)"/>
    <path d="M0 0 C0.69007386 36.39343385 -6.73457948 73.29900305 -29 103 C-29.3923584 103.53608887 -29.7847168 104.07217773 -30.18896484 104.62451172 C-52.40199584 134.85867595 -82.41823476 153.59011922 -119.296875 160.60595703 C-126.49254371 161.65489212 -133.75969445 161.37235857 -141 161 C-142.68946008 118.62834108 -129.99646624 81.13992646 -101.4375 49.625 C-80.4627075 27.45164793 -54.60323488 11.63152938 -25 4 C-23.02057561 3.43840758 -21.0413903 2.87597149 -19.0625 2.3125 C-12.62833672 0.5791383 -6.66042805 -0.03945751 0 0 Z " fill="#FDFDFD" transform="translate(746,281)"/>
    <path d="M0 0 C0.86882813 0.350625 1.73765625 0.70125 2.6328125 1.0625 C9.54150566 4.10486029 14.68662187 8.71439214 20 14 C20.55429688 14.51949219 21.10859375 15.03898437 21.6796875 15.57421875 C38.07847581 32.46053861 38 57.24593517 38 79 C4.34 79 -29.32 79 -64 79 C-62.98265345 93.48309612 -62.98265345 93.48309612 -57 105 C-56.56816406 105.62003906 -56.13632813 106.24007812 -55.69140625 106.87890625 C-49.79330456 114.61494331 -40.49558045 119.39057959 -31 121 C-18.58434199 122.02987025 -9.53433353 120.19738857 0.67578125 113.109375 C3.00992984 111.24334658 3.00992984 111.24334658 3.90063477 109.22045898 C5.07544485 106.95103749 5.98211832 105.59369673 8 104 C12.78790525 103.10722815 17.46357829 103.34264356 22.3125 103.5625 C24.28186523 103.60987305 24.28186523 103.60987305 26.29101562 103.65820312 C29.52961009 103.74064008 32.7636694 103.85567672 36 104 C31.40033522 120.76884047 21.97350232 131.55874323 7.015625 140.17578125 C-3.01955768 145.06348031 -12.7955183 146.67664161 -23.875 146.5 C-25.10226807 146.48718994 -26.32953613 146.47437988 -27.59399414 146.46118164 C-48.08004868 146.00358236 -63.85259128 138.64672903 -78 124 C-91.5006234 109.49186739 -94.21538824 92.07491908 -94.35009766 73.11547852 C-94.36654343 71.42946459 -94.39368038 69.74351702 -94.43212891 68.05786133 C-94.87849272 48.29946991 -90.23178931 31.04651495 -76.37597656 16.28173828 C-57.34542936 -3.15032415 -25.54252352 -11.80080114 0 0 Z " fill="#FCFCFC" transform="translate(3332,330)"/>
    <path d="M0 0 C1.29808594 -0.01611328 2.59617187 -0.03222656 3.93359375 -0.04882812 C19.01710413 -0.05643837 33.81867585 4.01214713 45.125 14.5 C55.02180638 25.33672654 57.45893817 37.9788163 57.35205078 52.17822266 C57.35234283 53.2135614 57.35263489 54.24890015 57.35293579 55.31561279 C57.35155392 58.70268437 57.33604685 62.08952984 57.3203125 65.4765625 C57.31657831 67.8388151 57.31373325 70.20106926 57.31173706 72.56332397 C57.30413262 78.75449973 57.28451168 84.94558035 57.2623291 91.13671875 C57.24180176 97.46483066 57.23272065 103.79295808 57.22265625 110.12109375 C57.20126264 122.5182775 57.16610665 134.91536592 57.125 147.3125 C47.885 147.3125 38.645 147.3125 29.125 147.3125 C29.125 140.7125 29.125 134.1125 29.125 127.3125 C25.62223031 130.80336819 25.62223031 130.80336819 22.203125 134.375 C12.85130217 144.28633359 0.17481692 149.99368001 -13.44921875 150.55078125 C-22.93360352 150.75587899 -31.28506486 150.8401998 -39.875 146.3125 C-40.73222656 145.88839844 -41.58945313 145.46429688 -42.47265625 145.02734375 C-52.91274443 139.37426433 -58.74378556 131.28103448 -62.875 120.3125 C-63.42607422 118.87003906 -63.42607422 118.87003906 -63.98828125 117.3984375 C-66.821733 107.53752612 -65.2269938 96.26205491 -60.80859375 87.1015625 C-59.61624299 85.04741367 -58.32515205 83.19247551 -56.875 81.3125 C-56.22337891 80.43851563 -56.22337891 80.43851563 -55.55859375 79.546875 C-46.55146995 69.10519623 -31.08908521 64.52229746 -17.8515625 63.4609375 C-16.73399063 63.36530014 -16.73399063 63.36530014 -15.59384155 63.26773071 C-14.0226324 63.13516923 -12.45113948 63.00593268 -10.87939453 62.87988281 C-8.53968356 62.69070856 -6.20160555 62.48677354 -3.86328125 62.28125 C6.81899157 61.37974612 17.40794893 61.15468533 28.125 61.3125 C28.5541755 45.78279623 28.5541755 45.78279623 22.125 32.3125 C14.52241578 27.13498252 7.52855218 26.08853903 -1.4375 26 C-2.86545898 25.95649414 -2.86545898 25.95649414 -4.32226562 25.91210938 C-12.44561721 25.84022131 -19.39256858 27.43570882 -25.75 32.6875 C-28.01888063 35.22987485 -28.01888063 35.22987485 -29.1484375 38.453125 C-32.47560357 41.94235933 -33.48693519 41.7609382 -38.171875 41.8984375 C-40.65692502 41.85857039 -43.14162429 41.78703921 -45.625 41.6875 C-46.89472656 41.66042969 -48.16445312 41.63335937 -49.47265625 41.60546875 C-52.60847906 41.5347359 -55.74088663 41.43606492 -58.875 41.3125 C-58.14455577 30.01625628 -54.47355085 21.90197978 -46.0703125 14.08984375 C-32.26291509 2.91125688 -17.32046557 -0.04274547 0 0 Z " fill="#FBFBFB" transform="translate(2199.875,325.6875)"/>
    <path d="M0 0 C63.10385757 0 63.10385757 0 83 18 C96.25482467 31.62482798 100.55195856 47.93597172 100.33618164 66.45507812 C100.31245328 68.62928135 100.3156635 70.80226108 100.32226562 72.9765625 C100.29054013 89.91230598 96.70660948 105.12023349 85 118 C84.10861328 119.02867187 84.10861328 119.02867187 83.19921875 120.078125 C73.94006146 130.12325631 61.31382012 135.78102998 48 138 C32.16 138 16.32 138 0 138 C0 92.46 0 46.92 0 0 Z " fill="#010101" transform="translate(1177,308)"/>
    <path d="M0 0 C9.57 0 19.14 0 29 0 C29 26.07 29 52.14 29 79 C29.66 79 30.32 79 31 79 C31.268125 78.26523437 31.53625 77.53046875 31.8125 76.7734375 C35.96345685 67.07876854 44.37174502 60.40316348 53.8125 56.125 C60.68167747 53.70058442 67.34262415 53.71448579 74.5625 53.625 C76.23795898 53.56892578 76.23795898 53.56892578 77.94726562 53.51171875 C91.43092511 53.37101969 102.70988009 59.15867835 112.625 68.0625 C122.24134321 78.1495733 125.32564444 90.36961692 125.22705078 103.82226562 C125.22734283 104.87681946 125.22763489 105.93137329 125.22793579 107.0178833 C125.22654976 110.48075782 125.21102271 113.94341337 125.1953125 117.40625 C125.19157979 119.8162016 125.18873404 122.22615473 125.18673706 124.6361084 C125.17912094 130.96211985 125.15948978 137.28803868 125.1373291 143.61401367 C125.11682711 150.07599637 125.10772604 156.53799411 125.09765625 163 C125.076242 175.6667138 125.04107629 188.33333468 125 201 C115.43 201 105.86 201 96 201 C95.98541748 198.17453613 95.97083496 195.34907227 95.95581055 192.43798828 C95.90535958 183.07812877 95.83874601 173.71843378 95.76428509 164.35873604 C95.71965403 158.6867631 95.68038187 153.01486079 95.65356445 147.34277344 C95.62745908 141.86372251 95.58700548 136.38494443 95.53681374 130.90606308 C95.52019389 128.82104779 95.50864934 126.73598536 95.50238609 124.65091324 C95.4926918 121.71897365 95.46456912 118.78772449 95.43237305 115.85595703 C95.43380814 115.00358963 95.43524323 114.15122223 95.4367218 113.27302551 C95.28735698 103.58680708 92.64079597 94.25621457 86 87 C76.5817348 80.14886611 66.23976069 80.12470943 55 81 C46.90782384 82.5315116 40.09462681 87.63813829 35 94 C28.20509936 104.03417186 29.26775197 115.48375305 29.29296875 127.07421875 C29.27983737 129.2108551 29.26452875 131.34747908 29.24714661 133.48408508 C29.20745265 139.07521167 29.1971162 144.66601234 29.19311523 150.25726318 C29.18375435 155.97564482 29.14632234 161.69383732 29.11132812 167.41210938 C29.04691089 178.60810898 29.01613874 189.80382662 29 201 C19.43 201 9.86 201 0 201 C0 134.67 0 68.34 0 0 Z " fill="#FCFCFC" transform="translate(3077,272)"/>
    <path d="M0 0 C2.96908932 1.48454466 3.1615064 3.85571815 4.18106079 6.84976196 C4.59997086 8.11715714 4.59997086 8.11715714 5.02734375 9.41015625 C5.47767471 10.74256851 5.47767471 10.74256851 5.93710327 12.10189819 C6.94410598 15.08649977 7.94063857 18.07449741 8.9375 21.0625 C9.65117182 23.18328169 10.36562478 25.30380064 11.08081055 27.42407227 C12.60568319 31.94730061 14.12682299 36.47176079 15.64550781 40.99707031 C17.95559063 47.87514867 20.28344342 54.74710598 22.6171875 61.6171875 C23.19433502 63.31621216 23.19433502 63.31621216 23.78314209 65.04956055 C24.56589202 67.35349758 25.34870884 69.65741188 26.1315918 71.96130371 C28.11829469 77.80948836 30.10217012 83.65863156 32.0859375 89.5078125 C32.48419739 90.6819873 32.88245728 91.85616211 33.29278564 93.06591797 C35.8506382 100.60809007 38.40622356 108.15102733 40.96058655 115.69438171 C42.70007476 120.83118029 44.44066332 125.96760591 46.1812439 131.10403442 C47.00968113 133.54957951 47.8376738 135.99527525 48.66519165 138.44113159 C49.81605689 141.84263922 50.96842507 145.2436344 52.12109375 148.64453125 C52.45569611 149.63480316 52.79029846 150.62507507 53.13504028 151.64535522 C55.06811535 157.34319558 57.09657365 162.9879195 59.2613678 168.6023407 C60 171 60 171 60 175 C20.73 175 -18.54 175 -59 175 C-57.87504268 167.12529874 -57.87504268 167.12529874 -56.67163086 163.63671875 C-56.40238297 162.84611053 -56.13313507 162.05550232 -55.85572815 161.24093628 C-55.5617363 160.39830231 -55.26774445 159.55566833 -54.96484375 158.6875 C-54.6547789 157.78242706 -54.34471405 156.87735413 -54.0252533 155.94485474 C-53.00171556 152.96123851 -51.96955782 149.98067861 -50.9375 147 C-50.21369876 144.89459414 -49.49056537 142.78895858 -48.76806641 140.68310547 C-47.26477823 136.30314709 -45.75861054 131.92419455 -44.25048828 127.54589844 C-41.098993 118.38901716 -37.98468352 109.21952564 -34.8692627 100.05032349 C-33.21039403 95.16959379 -31.54860517 90.28985907 -29.88671875 85.41015625 C-29.56216705 84.45715134 -29.23761536 83.50414642 -28.90322876 82.52226257 C-24.09492014 68.40487542 -19.2802793 54.28965658 -14.45381165 40.1784668 C-12.8077682 35.36536906 -11.16504167 30.55115548 -9.52482605 25.73606873 C-8.49066712 22.70191334 -7.45410569 19.6685828 -6.41690063 16.63546753 C-5.93489506 15.22429894 -5.45389907 13.81278506 -4.97396851 12.40090942 C-4.32257831 10.48510518 -3.66726505 8.57063611 -3.01171875 6.65625 C-2.64522217 5.58181641 -2.27872559 4.50738281 -1.90112305 3.40039062 C-1 1 -1 1 0 0 Z " fill="#010101" transform="translate(1284,648)"/>
    <path d="M0 0 C0.83337891 0.00563965 1.66675781 0.0112793 2.52539062 0.01708984 C16.3773055 0.28801227 27.93229021 4.41684434 38.0625 14.0625 C52.68287901 29.61115705 52.15803914 45.70614581 51.82421875 65.890625 C51.79614625 68.2724249 51.76946012 70.65424151 51.74409485 73.03607178 C51.67401498 79.27015345 51.58523878 85.50383065 51.49243164 91.73760986 C51.40087505 98.11269554 51.32718905 104.48798577 51.25195312 110.86328125 C51.10202394 123.34663326 50.93066921 135.82955501 50.75 148.3125 C41.18 148.3125 31.61 148.3125 21.75 148.3125 C21.7406543 145.36586426 21.73130859 142.41922852 21.72167969 139.38330078 C21.68784277 129.62428454 21.63225635 119.86547827 21.56609726 110.10663033 C21.52666589 104.19249522 21.49445597 98.27850804 21.47900391 92.36425781 C21.46380898 86.65173946 21.42931247 80.93962792 21.38169098 75.22729111 C21.36690652 73.05296244 21.35896068 70.87857569 21.35811615 68.70419693 C21.35573595 65.64757671 21.3285709 62.5920712 21.29589844 59.53564453 C21.3009288 58.64587418 21.30595917 57.75610382 21.31114197 56.83937073 C21.18644167 49.2499831 18.90559165 43.04333171 15.125 36.5 C6.95614685 28.97605631 -2.93867805 27.6860058 -13.58203125 27.9140625 C-22.41571237 28.41741632 -28.86273002 32.45388507 -34.8125 38.8125 C-41.25604621 46.78003846 -42.38904526 53.59427222 -42.45532227 63.5090332 C-42.47017166 64.88538185 -42.47017166 64.88538185 -42.48532104 66.28953552 C-42.51683901 69.31409143 -42.54165507 72.33866303 -42.56640625 75.36328125 C-42.58698415 77.46364239 -42.60798085 79.56399947 -42.62937927 81.66435242 C-42.68451352 87.1864187 -42.7339609 92.70852183 -42.78222656 98.23065186 C-42.83250476 103.86799388 -42.88815783 109.50528255 -42.94335938 115.14257812 C-43.05083519 126.19917482 -43.15180678 137.25581696 -43.25 148.3125 C-52.82 148.3125 -62.39 148.3125 -72.25 148.3125 C-72.25 100.4625 -72.25 52.6125 -72.25 3.3125 C-63.01 3.3125 -53.77 3.3125 -44.25 3.3125 C-44.25 10.9025 -44.25 18.4925 -44.25 26.3125 C-41.76658022 23.82908022 -40.42648727 22.05791882 -38.6875 19.125 C-32.40738941 9.55679181 -22.47787621 3.36568377 -11.47119141 0.72265625 C-7.65049294 0.01714147 -3.87631248 -0.02759783 0 0 Z " fill="#FBFBFB" transform="translate(2794.25,324.6875)"/>
    <path d="M0 0 C10.68805911 7.39701452 17.90639422 16.95098176 21.0625 29.6875 C21.45447592 33.43156844 21.44342428 37.13698306 21.40307617 40.89868164 C21.40373329 42.5246225 21.40373329 42.5246225 21.40440369 44.18341064 C21.40232674 47.73834742 21.3790469 51.29280265 21.35546875 54.84765625 C21.34986892 57.32343793 21.34560065 59.79922295 21.34260559 62.27500916 C21.33118738 68.77038863 21.30174604 75.26556476 21.26849365 81.76086426 C21.2377276 88.39719261 21.22408631 95.03354098 21.20898438 101.66992188 C21.17687355 114.67588466 21.12413014 127.68164356 21.0625 140.6875 C11.4925 140.6875 1.9225 140.6875 -7.9375 140.6875 C-7.95208252 137.83174316 -7.96666504 134.97598633 -7.98168945 132.03369141 C-8.03213781 122.57404816 -8.09875094 113.11456775 -8.17321491 103.65508461 C-8.21784816 97.92257735 -8.25711986 92.19014002 -8.28393555 86.45751953 C-8.31003871 80.92011541 -8.3504908 75.38298137 -8.40068626 69.84574509 C-8.41730759 67.73840075 -8.42885123 65.63100974 -8.43511391 63.52360916 C-8.44480656 60.56053941 -8.4729274 57.59815328 -8.50512695 54.63525391 C-8.50369186 53.77353577 -8.50225677 52.91181763 -8.5007782 52.02398682 C-8.65618709 41.84152128 -11.3590087 33.375003 -18.5625 26 C-26.90279663 19.60026743 -37.92156095 19.76566073 -47.9375 20.6875 C-51.33594759 21.54315466 -53.99731744 22.80201218 -56.9375 24.6875 C-57.63230469 25.1 -58.32710937 25.5125 -59.04296875 25.9375 C-65.49887262 30.20106128 -69.50456543 36.38869628 -71.9375 43.6875 C-72.03650325 45.03264596 -72.0835048 46.38202959 -72.09571838 47.73075867 C-72.11040161 48.96120407 -72.11040161 48.96120407 -72.12538147 50.21650696 C-72.13113693 51.11274277 -72.1368924 52.00897858 -72.14282227 52.93237305 C-72.15767166 54.35217468 -72.15767166 54.35217468 -72.17282104 55.80065918 C-72.20444239 58.93348681 -72.22919606 62.06632961 -72.25390625 65.19921875 C-72.27447522 67.36969907 -72.29547168 69.54017537 -72.31687927 71.71064758 C-72.37210577 77.42673496 -72.42151255 83.14285853 -72.46972656 88.85900879 C-72.51993733 94.69054387 -72.57562562 100.52202633 -72.63085938 106.35351562 C-72.73844806 117.79813382 -72.83938542 129.24279666 -72.9375 140.6875 C-82.5075 140.6875 -92.0775 140.6875 -101.9375 140.6875 C-101.9375 92.8375 -101.9375 44.9875 -101.9375 -4.3125 C-92.6975 -4.3125 -83.4575 -4.3125 -73.9375 -4.3125 C-73.9375 3.2775 -73.9375 10.8675 -73.9375 18.6875 C-73.2775 18.6875 -72.6175 18.6875 -71.9375 18.6875 C-71.69128906 17.800625 -71.44507813 16.91375 -71.19140625 16 C-67.99847382 7.56508817 -59.87538557 0.69626495 -51.9375 -3.3125 C-48.64822875 -4.54476386 -45.35074142 -5.49308626 -41.9375 -6.3125 C-41.30996826 -6.48378418 -40.68243652 -6.65506836 -40.03588867 -6.83154297 C-26.66556033 -9.89606267 -11.55914584 -6.97318037 0 0 Z " fill="#FCFCFC" transform="translate(1833.9375,332.3125)"/>
    <path d="M0 0 C13.1996587 11.26800133 21.21909374 25.93067184 24.375 42.9375 C24.375 47.5575 24.375 52.1775 24.375 56.9375 C-23.475 56.9375 -71.325 56.9375 -120.625 56.9375 C-120.625 36.7462288 -113.22057515 19.34395453 -99.390625 4.546875 C-72.00557157 -21.76425476 -29.62849058 -23.27952831 0 0 Z " fill="#000000" transform="translate(3435.625,751.0625)"/>
    <path d="M0 0 C9.57 0 19.14 0 29 0 C29 12.21 29 24.42 29 37 C39.23 37 49.46 37 60 37 C60 44.92 60 52.84 60 61 C49.77 61 39.54 61 29 61 C29.04040758 71.53627768 29.09760316 82.07210385 29.18390274 92.60810757 C29.22331873 97.50103992 29.25553599 102.39379389 29.27099609 107.28686523 C29.28620146 112.01387347 29.3207156 116.74039109 29.36830902 121.46718025 C29.3830829 123.26553126 29.39103871 125.06395232 29.39188385 126.86236382 C29.00149904 140.1013411 29.00149904 140.1013411 34 152 C38.9770463 156.46379364 44.49636799 156.64042081 50.9375 156.75 C53.928125 156.8325 56.91875 156.915 60 157 C60 164.92 60 172.84 60 181 C43.07958715 183.11505161 24.34124257 184.08979981 9.96875 173.50390625 C3.6776741 167.94590064 1.29457544 160.10935545 0 152 C-0.13960215 149.02587238 -0.1263748 146.05576349 -0.11352539 143.07885742 C-0.11367142 142.19055237 -0.11381744 141.30224731 -0.1139679 140.38702393 C-0.11327293 137.45981376 -0.1055 134.53266775 -0.09765625 131.60546875 C-0.09579059 129.57237279 -0.09436739 127.53927638 -0.09336853 125.50617981 C-0.08955499 120.16161859 -0.07973462 114.81708464 -0.06866455 109.47253418 C-0.05842543 104.01619842 -0.05386555 98.55985823 -0.04882812 93.10351562 C-0.03811132 82.40232985 -0.02052392 71.70117146 0 61 C-7.59 61 -15.18 61 -23 61 C-23 53.08 -23 45.16 -23 37 C-15.41 37 -7.82 37 0 37 C0 24.79 0 12.58 0 0 Z " fill="#FDFDFD" transform="translate(2978,292)"/>
    <path d="M0 0 C9.56057097 6.21886669 15.10274723 16.63429311 17.64477539 27.62548828 C18.42837821 32.86350957 18.28462927 38.15365077 18.25 43.4375 C18.26160156 45.2019043 18.26160156 45.2019043 18.2734375 47.00195312 C18.24278417 60.71165521 15.5220848 74.20365589 5.671875 84.390625 C5.12015625 84.92171875 4.5684375 85.4528125 4 86 C3.2575 86.7425 2.515 87.485 1.75 88.25 C-8.0371694 94.47819871 -18.67852381 95.34501583 -30 94 C-33.3926274 93.11809686 -36.06779843 91.89576343 -39 90 C-40.051875 89.401875 -41.10375 88.80375 -42.1875 88.1875 C-52.61250371 80.07916378 -57.32986339 67.86005191 -59 55 C-60.30791248 37.39162275 -58.82747819 21.15432222 -48.17578125 6.48828125 C-45.86644607 3.84726418 -43.65044468 2.17743689 -40.6875 0.3125 C-39.78386719 -0.26886719 -38.88023437 -0.85023438 -37.94921875 -1.44921875 C-26.05033494 -7.70598282 -11.38607826 -6.75529716 0 0 Z " fill="#010101" transform="translate(2636,356)"/>
    <path d="M0 0 C9.07371483 7.43747117 13.78391311 16.8436598 15.75 28.3125 C15.99699875 32.83070589 15.98117819 37.35070652 16 41.875 C16.020625 43.08736328 16.04125 44.29972656 16.0625 45.54882812 C16.12045914 59.06055181 13.12117148 70.3324738 5.5625 81.5625 C-3.38662493 90.31275549 -13.33608952 92.74272447 -25.47045898 92.67382812 C-35.18133996 92.44358547 -42.09153774 89.53226993 -49.14453125 82.75390625 C-60.9256811 69.0930182 -62.26512143 51.55206228 -61.25 34.3125 C-60.83953603 30.87828482 -60.16642577 27.6439094 -59.25 24.3125 C-59.05535156 23.48492187 -58.86070313 22.65734375 -58.66015625 21.8046875 C-55.93993318 11.27790711 -49.93110673 3.75136625 -41.25 -2.6875 C-28.51486065 -10.03371811 -11.80627675 -8.11964244 0 0 Z " fill="#010101" transform="translate(1431.25,357.6875)"/>
    <path d="M0 0 C9.02344281 7.33343346 13.72582719 17.51931496 15.1875 28.94970703 C16.80445516 46.76241442 16.97049942 64.19478618 6.3984375 79.2734375 C5.5321875 80.6346875 5.5321875 80.6346875 4.6484375 82.0234375 C-2.82642604 89.49830104 -11.98527495 92.55523449 -22.4140625 92.5859375 C-33.51137719 92.48513402 -41.59355138 90.23542556 -49.6015625 82.2734375 C-61.02300387 67.93429167 -62.90514286 51.01920115 -61.6015625 33.2734375 C-60.12823439 21.0202587 -56.06243285 9.47934972 -46.81640625 0.9609375 C-32.86540804 -9.66839447 -14.53330044 -9.64522342 0 0 Z " fill="#010101" transform="translate(2059.6015625,357.7265625)"/>
    <path d="M0 0 C11.36142926 7.36903891 18.38493639 17.22700363 21.234375 30.44921875 C24.16232068 47.21836221 23.47405861 65.04939629 14.25 79.71875 C7.9112389 88.3055601 -0.21421555 93.70143927 -10.765625 95.44921875 C-20.24401869 96.37579249 -29.60769856 94.93756845 -37.6015625 89.53125 C-48.68026174 80.13265379 -53.75533053 68.13264554 -54.99316406 53.81787109 C-55.92083896 37.30934199 -54.49637442 21.80605875 -43.765625 8.44921875 C-33.19813489 -2.97897191 -14.19142386 -6.97337207 0 0 Z " fill="#010101" transform="translate(2378.765625,354.55078125)"/>
    <path d="M0 0 C9.57 0 19.14 0 29 0 C29 66.33 29 132.66 29 201 C19.43 201 9.86 201 0 201 C0 134.67 0 68.34 0 0 Z " fill="#FCFCFC" transform="translate(1900,272)"/>
    <path d="M0 0 C0.42176103 9.44276089 0.70779847 17.4834618 -4 26 C-4.5775 27.051875 -5.155 28.10375 -5.75 29.1875 C-11.35700307 36.19625384 -18.32029589 42.00657746 -27.45581055 43.36523438 C-29.98284401 43.49848474 -32.47045841 43.49781984 -35 43.4375 C-36.25683594 43.44813477 -36.25683594 43.44813477 -37.5390625 43.45898438 C-46.00894362 43.37376111 -53.33329421 41.50791618 -59.55859375 35.5859375 C-63.93952471 30.7657262 -64.61707337 26.07164008 -64.40234375 19.75 C-63.6153242 14.37075959 -61.30326508 10.84261207 -57.0859375 7.46875 C-47.71594415 1.60824507 -35.72819895 1.65222106 -25 0.875 C-23.37191406 0.74544922 -23.37191406 0.74544922 -21.7109375 0.61328125 C-14.46108397 0.06824453 -7.26899388 -0.10314113 0 0 Z " fill="#020202" transform="translate(2228,408)"/>
    <path d="M0 0 C7.46568967 5.57579024 13.21930445 13.62109937 14.8125 22.9375 C14.8125 25.5775 14.8125 28.2175 14.8125 30.9375 C-9.2775 30.9375 -33.3675 30.9375 -58.1875 30.9375 C-58.1875 19.31665053 -54.56632378 11.56166316 -46.5625 3.25 C-33.66749655 -8.689818 -14.54069111 -9.28501963 0 0 Z " fill="#020202" transform="translate(3326.1875,356.0625)"/>
</svg>
