<svg width="32" height="32" viewBox="0 0 32 32" fill="none" xmlns="http://www.w3.org/2000/svg">
<path d="M4.28453 24.2491H0.680176V21.3152H16.4594V13.0365C16.4594 12.1768 17.1561 11.4854 18.0105 11.4854H21.3415C22.1564 11.4854 22.8978 11.9638 23.2291 12.7184L23.4709 13.2599L24.6303 15.8442L27.7194 16.3174C29.7253 16.6224 31.2002 18.347 31.2002 20.3714V24.2465H29.5755M24.399 24.2465H9.43999M4.28453 23.9284C4.28453 22.4982 5.44392 21.3415 6.87146 21.3415C8.29901 21.3415 9.45839 22.5008 9.45839 23.9284C9.45839 25.3559 8.29901 26.5153 6.87146 26.5153C5.44392 26.5153 4.28453 25.3559 4.28453 23.9284ZM29.2495 23.9284C29.2495 24.0335 29.2442 24.1413 29.2311 24.2465C29.076 25.5242 27.9849 26.5127 26.6652 26.5127C25.3454 26.5127 24.2491 25.5216 24.094 24.2465C24.0809 24.1413 24.0756 24.0335 24.0756 23.9284C24.0756 22.4956 25.235 21.3362 26.6678 21.3362C28.1006 21.3362 29.2521 22.4956 29.2521 23.9284H29.2495Z" stroke="black" stroke-miterlimit="10"/>
<path d="M0.299805 4.90625H14.0625L14.0625 18.7499H0.299805" stroke="#C4B097"/>
<circle cx="14.8125" cy="17.5742" r="5.5" fill="#C4B097"/>
<path d="M15.1929 14.7461V17.194H17.6296V17.9541H15.1929V20.4019H14.4328V17.9541H11.9961V17.194H14.4328V14.7461H15.1929Z" fill="white" stroke="white" stroke-width="0.25"/>
</svg>
