<svg xmlns="http://www.w3.org/2000/svg" width="28" height="34" viewBox="0 0 28 34" fill="none">
  <path d="M18.1457 29.2643C18.3951 29.033 18.4405 28.6034 18.2473 28.3049L10.9267 17.0011L18.2473 5.69735C18.4405 5.3988 18.3951 4.96922 18.1457 4.73795C17.8962 4.50654 17.5372 4.56098 17.344 4.85953L9.75208 16.5822C9.5924 16.8288 9.5924 17.1734 9.75208 17.42L17.344 29.1427C17.5372 29.4412 17.8962 29.4957 18.1457 29.2643Z" fill="white"/>
  <path d="M18.1457 29.2643C18.3951 29.033 18.4405 28.6034 18.2473 28.3049L10.9267 17.0011L18.2473 5.69735C18.4405 5.3988 18.3951 4.96922 18.1457 4.73795C17.8962 4.50654 17.5372 4.56098 17.344 4.85953L9.75208 16.5822C9.5924 16.8288 9.5924 17.1734 9.75208 17.42L17.344 29.1427C17.5372 29.4412 17.8962 29.4957 18.1457 29.2643Z" stroke="white"/>
</svg>