<svg width="28" height="34" viewBox="0 0 28 34" fill="none" xmlns="http://www.w3.org/2000/svg">
    <path d="M9.85407 29.2643C9.6047 29.033 9.55921 28.6034 9.75247 28.3049L17.0731 17.0011L9.75247 5.69735C9.55922 5.3988 9.6047 4.96922 9.85407 4.73795C10.1036 4.50654 10.4625 4.56098 10.6558 4.85953L18.2477 16.5822C18.4074 16.8288 18.4074 17.1734 18.2477 17.42L10.6558 29.1427C10.4625 29.4412 10.1036 29.4957 9.85407 29.2643Z" fill="white"/>
    <path d="M9.85407 29.2643C9.6047 29.033 9.55921 28.6034 9.75247 28.3049L17.0731 17.0011L9.75247 5.69735C9.55922 5.3988 9.6047 4.96922 9.85407 4.73795C10.1036 4.50654 10.4625 4.56098 10.6558 4.85953L18.2477 16.5822C18.4074 16.8288 18.4074 17.1734 18.2477 17.42L10.6558 29.1427C10.4625 29.4412 10.1036 29.4957 9.85407 29.2643Z" stroke="white"/>
</svg>
