<svg width="32" height="32" viewBox="0 0 32 32" fill="none" xmlns="http://www.w3.org/2000/svg">
<g clip-path="url(#clip0_27_7532)">
<path d="M30.0735 20.6483C31.6548 16.8046 31.504 12.3017 29.2673 8.42763C27.0306 4.55355 23.3952 2.28991 19.3984 1.66012M12.7505 30.6497C8.63115 30.0974 4.80694 27.7152 2.57024 23.8412C0.333543 19.9671 0.190853 15.6869 1.64887 11.9078M26.0845 19.6727C27.2534 16.83 27.1394 13.5035 25.4851 10.6381C23.8307 7.77264 21.1445 6.09844 18.1885 5.63724M13.9002 26.7073C10.8538 26.2983 8.02997 24.5363 6.37562 21.6709C4.72128 18.8055 4.61447 15.6421 5.69308 12.8515" stroke="#C4B097" stroke-width="1.07008" stroke-miterlimit="10"/>
<path d="M22.7797 19.7583C22.3351 19.0396 21.3688 18.83 20.6299 19.2834L18.8596 20.3786C18.8596 20.3786 17.2271 19.3755 15.5935 16.729C13.959 14.0867 13.786 12.1771 13.786 12.1771L15.5562 11.0819C16.2961 10.6243 16.5346 9.66928 16.091 8.94632L13.8539 5.33603C13.405 4.61633 12.444 4.40345 11.7042 4.86113C10.7754 5.45033 9.97564 6.04738 9.47793 7.06769C8.9689 8.11694 8.8445 9.31549 8.90177 10.4711C9.05056 13.4991 10.3217 16.4574 11.9007 19.0098C13.4797 21.5622 15.5594 24.0204 18.2025 25.5054C19.2109 26.0725 20.3379 26.5006 21.5051 26.5092C22.6403 26.5194 23.5358 26.0713 24.4777 25.5032C25.2133 25.0445 25.4571 24.0863 25.0125 23.3676L22.7764 19.753L22.7797 19.7583Z" stroke="black" stroke-width="1.0688"/>
</g>
<defs>
<clipPath id="clip0_27_7532">
<rect width="32" height="32" fill="white"/>
</clipPath>
</defs>
</svg>
