<svg xmlns="http://www.w3.org/2000/svg" width="24" height="24" viewBox="0 0 24 24" fill="none">
    <path fill="currentColor" fill-rule="evenodd" clip-rule="evenodd" d="M16.3984 5.52702C16.3984 4.97815 16.8434 4.5332 17.3923 4.5332C17.9411 4.5332 18.3861 4.97815 18.3861 5.52702C18.3861 6.07589 17.9411 6.52084 17.3923 6.52084C16.8434 6.52084 16.3984 6.07589 16.3984 5.52702ZM15.4617 6.02734L3.47852 6.02734V5.02734L15.4616 5.02734C15.6833 4.16802 16.4637 3.5332 17.3923 3.5332C18.3209 3.5332 19.1012 4.16802 19.3229 5.02734H20.5222V6.02734H19.3228C19.1008 6.88634 18.3206 7.52084 17.3923 7.52084C16.4639 7.52084 15.6837 6.88634 15.4617 6.02734ZM5.57227 11.9936C5.57227 11.4416 6.01972 10.9941 6.57168 10.9941C7.12364 10.9941 7.57109 11.4416 7.57109 11.9936C7.57109 12.5455 7.12364 12.993 6.57168 12.993C6.01972 12.993 5.57227 12.5455 5.57227 11.9936ZM4.63494 12.4922H3.47852V11.4922H4.63565C4.85813 10.6306 5.64058 9.99414 6.57168 9.99414C7.50278 9.99414 8.28523 10.6306 8.50771 11.4922L20.5222 11.4922V12.4922L8.50842 12.4922C8.28689 13.3552 7.50377 13.993 6.57168 13.993C5.63959 13.993 4.85647 13.3552 4.63494 12.4922ZM12.9883 18.4654C12.9883 17.9128 13.4362 17.4648 13.9888 17.4648C14.5414 17.4648 14.9893 17.9128 14.9893 18.4654C14.9893 19.0179 14.5414 19.4659 13.9888 19.4659C13.4362 19.4659 12.9883 19.0179 12.9883 18.4654ZM12.0511 18.9648H3.47852L3.47852 17.9648H12.0514C12.2736 17.1022 13.0568 16.4648 13.9888 16.4648C14.9208 16.4648 15.704 17.1022 15.9262 17.9648L20.5222 17.9648V18.9648L15.9264 18.9648C15.7046 19.828 14.9212 20.4659 13.9888 20.4659C13.0564 20.4659 12.273 19.828 12.0511 18.9648Z"/>
</svg>