<svg width="24" height="24" viewBox="0 0 24 24" fill="currentColor" xmlns="http://www.w3.org/2000/svg">
  <path fill-rule="evenodd" clip-rule="evenodd" d="M19.4348 12C19.4348 16.1061 16.1061 19.4348 12 19.4348C7.89388 19.4348 4.56522 16.1061 4.56522 12C4.56522 7.89388 7.89388 4.56522 12 4.56522C16.1061 4.56522 19.4348 7.89388 19.4348 12ZM21 12C21 16.9706 16.9706 21 12 21C7.02944 21 3 16.9706 3 12C3 7.02944 7.02944 3 12 3C16.9706 3 21 7.02944 21 12ZM13.174 8.86957C13.174 9.5179 12.6484 10.0435 12.0001 10.0435C11.3518 10.0435 10.8262 9.5179 10.8262 8.86957C10.8262 8.22123 11.3518 7.69565 12.0001 7.69565C12.6484 7.69565 13.174 8.22123 13.174 8.86957ZM10.8261 10.8261V17.0869H13.1739V10.8261H10.8261Z" fill="white"/>
</svg>
