<svg width="32" height="32" viewBox="0 0 32 32" fill="none" xmlns="http://www.w3.org/2000/svg">
<g clip-path="url(#clip0_4899_67952)">
<path fill-rule="evenodd" clip-rule="evenodd" d="M9.82177 0.872506C5.35245 0.950043 1.79195 4.6503 1.86918 9.13727C1.94641 13.6242 5.63213 17.1988 10.1014 17.1212C14.5708 17.0437 18.1313 13.3434 18.054 8.85648C17.9768 4.36952 14.2911 0.794969 9.82177 0.872506ZM1.15223 9.14971C1.06816 4.26522 4.9441 0.237132 9.80938 0.152726C14.6747 0.0683198 18.6869 3.95956 18.771 8.84404C18.855 13.7285 14.9791 17.7566 10.1138 17.841C5.24856 17.9254 1.2363 14.0342 1.15223 9.14971Z" fill="black"/>
<path fill-rule="evenodd" clip-rule="evenodd" d="M9.82177 13.1008C5.35245 13.1783 1.79195 16.8786 1.86918 21.3655C1.94641 25.8525 5.63213 29.427 10.1014 29.3495C14.5708 29.272 18.1313 25.5717 18.054 21.0847C17.9768 16.5978 14.2911 13.0232 9.82177 13.1008ZM1.15223 21.378C1.06816 16.4935 4.9441 12.4654 9.80938 12.381C14.6747 12.2966 18.6869 16.1878 18.771 21.0723C18.855 25.9568 14.9791 29.9849 10.1138 30.0693C5.24856 30.1537 1.2363 26.2625 1.15223 21.378Z" fill="#C4B097"/>
<path fill-rule="evenodd" clip-rule="evenodd" d="M21.8979 0.872506C17.4286 0.950043 13.8681 4.6503 13.9454 9.13727C14.0226 13.6242 17.7083 17.1988 22.1776 17.1212C26.6469 17.0437 30.2074 13.3434 30.1302 8.85648C30.053 4.36952 26.3673 0.794969 21.8979 0.872506ZM13.2284 9.14971C13.1443 4.26522 17.0203 0.237132 21.8856 0.152726C26.7508 0.0683198 30.7631 3.95956 30.8471 8.84404C30.9312 13.7285 27.0553 17.7566 22.19 17.841C17.3247 17.9254 13.3125 14.0342 13.2284 9.14971Z" fill="#C4B097"/>
<path fill-rule="evenodd" clip-rule="evenodd" d="M21.8979 13.1008C17.4286 13.1783 13.8681 16.8786 13.9454 21.3655C14.0226 25.8525 17.7083 29.427 22.1776 29.3495C26.6469 29.272 30.2074 25.5717 30.1302 21.0847C30.053 16.5978 26.3673 13.0232 21.8979 13.1008ZM13.2284 21.378C13.1443 16.4935 17.0203 12.4654 21.8856 12.381C26.7508 12.2966 30.7631 16.1878 30.8471 21.0723C30.9312 25.9568 27.0553 29.9849 22.19 30.0693C17.3247 30.1537 13.3125 26.2624 13.2284 21.378Z" fill="black"/>
</g>
<defs>
<clipPath id="clip0_4899_67952">
<rect width="32" height="32" fill="white"/>
</clipPath>
</defs>
</svg>
