<svg width="32" height="32" viewBox="0 0 32 32" fill="none" xmlns="http://www.w3.org/2000/svg">
<g clip-path="url(#clip0_4903_156794)">
<path d="M16 5.75C22.2436 5.75 27.25 10.5927 27.25 16.5C27.25 22.4073 22.2436 27.25 16 27.25C9.75639 27.25 4.75 22.4073 4.75 16.5C4.75 10.5927 9.75639 5.75 16 5.75Z" stroke="#B3976B" stroke-width="1.5"/>
<path d="M3.04102 3.50195L3.71875 3.57227C4.45276 3.66336 5.34837 3.81815 6.32812 4.05469L6.86914 4.19141C9.61472 4.92126 12.9521 6.31254 15.2236 8.82812H15.2246C15.6867 9.33969 16.1062 9.90054 16.4658 10.5098L16.6016 10.7461C16.6455 10.8253 16.6883 10.9049 16.7295 10.9844L16.8799 11.2861C17.6019 12.8047 17.9649 14.5898 17.8096 16.6768V16.6973L17.8076 16.7168C17.7923 16.905 17.7739 17.099 17.75 17.2969C17.7225 17.5303 17.6882 17.7661 17.6484 18.0029L16.8193 18.0088C16.9462 18.7742 17.0323 19.6163 17.0254 20.4961C17.0253 20.5077 17.0245 20.5197 17.0244 20.5312L17.0254 20.5283L17.0576 20.2305C17.2417 18.7584 17.7551 17.5628 18.4893 16.6016L18.4902 16.6006L18.7354 16.2979C19.0659 15.9117 19.432 15.5693 19.8223 15.2666L20.2139 14.9824C22.1056 13.6892 24.479 13.2137 26.374 13.0791L26.377 13.0742L26.6729 13.0576C27.6282 13.0059 28.4607 13.0393 29.0498 13.0986L30.627 13.2568L29.2441 14.0322C28.7693 14.2984 28.3685 14.7223 27.9922 15.2734C27.6138 15.8277 27.2822 16.477 26.9258 17.1748L26.9053 17.2129C26.8982 17.2272 26.8902 17.2451 26.8799 17.2656C26.8485 17.3282 26.8031 17.4182 26.7461 17.5283C26.632 17.7485 26.4716 18.0517 26.2842 18.3799C25.9658 18.9372 25.5425 19.6191 25.1279 20.082L24.9512 20.2666C23.9421 21.2341 22.6304 21.749 21.3877 21.9971C20.1435 22.2454 18.928 22.2343 18.0635 22.1172L17.4531 22.0342L17.6152 21.5752L16.9814 21.46C16.9816 21.4277 16.984 21.3953 16.9844 21.3633C16.7599 24.2304 15.4708 27.3627 11.6387 29.4395L11.1357 28.5752C15.4501 25.8914 16.1966 20.5906 13.8809 17.7314L13.6475 17.4629C13.5612 17.3703 13.389 17.2807 13.1182 17.21C12.8569 17.1417 12.5785 17.108 12.3262 17.0762V17.0771C11.3759 16.9572 10.5555 16.7146 9.84277 16.3721L9.54395 16.2197C9.54108 16.2182 9.53891 16.2154 9.53613 16.2139C8.51768 15.6597 7.82615 15.1497 7.19531 14.1924V14.1934C6.25369 12.773 5.72405 11.0528 5.23145 9.46582L5.20898 9.39355V9.39062C4.88807 8.35738 4.58171 7.38054 4.18945 6.5166C3.83944 5.74578 3.43288 5.09236 2.91211 4.59082L2.68164 4.38574L1.45117 3.37012L3.04102 3.50195Z" stroke="black"/>
</g>
<defs>
<clipPath id="clip0_4903_156794">
<rect width="32" height="32" fill="white"/>
</clipPath>
</defs>
</svg>
