<svg width="73" height="39" viewBox="0 0 73 39" fill="none" xmlns="http://www.w3.org/2000/svg">
<path d="M10.0264 33.379H2.51343V27.3964H35.4041V10.5152C35.4041 8.76219 36.8563 7.35229 38.6373 7.35229H45.5804C47.2792 7.35229 48.8245 8.32796 49.515 9.86651L50.0192 10.9708L52.4358 16.2405L58.8748 17.2055C63.056 17.8273 66.1302 21.344 66.1302 25.4718V33.3737L62.0258 33.3737M62.0258 33.3737C62.0532 33.1592 62.0641 32.9394 62.0641 32.725H62.0696C62.0696 29.8034 59.6694 27.4392 56.6828 27.4392C53.6962 27.4392 51.2796 29.8034 51.2796 32.725C51.2796 32.9394 51.2905 33.1592 51.3179 33.3737C51.6412 35.9736 53.9264 37.9947 56.6773 37.9947C59.4283 37.9947 61.7024 35.979 62.0258 33.3737ZM51.2796 33.3737L20.7726 33.3737M10.0264 32.725C10.0264 29.8087 12.4431 27.45 15.4187 27.45C18.3943 27.45 20.811 29.8141 20.811 32.725C20.811 35.6359 18.3943 38 15.4187 38C12.4431 38 10.0264 35.6359 10.0264 32.725Z" stroke="black" stroke-miterlimit="10"/>
<path d="M69.8144 34.0849C70.0904 32.6485 70.3602 31.2101 70.5665 29.7619C71.1346 25.8425 71.2561 21.3127 68.5 18.0116C65.7774 14.7564 61.6626 13.367 57.7303 12.4092C57.005 12.2412 56.3567 11.7756 56.0661 11.1374C55.1728 9.30907 54.6979 7.06557 52.9498 5.47915C51.2189 3.94026 48.9873 3.43923 46.8939 3.07819C43.7501 2.58618 40.6125 2.52249 37.4484 2.52805C27.4251 2.577 17.4033 2.70438 7.38503 2.91015C5.92109 2.94015 4.46315 2.97182 3 3.00515C4.46315 3.03848 5.92109 3.07015 7.38503 3.10015C17.4033 3.3059 27.4251 3.43324 37.4484 3.4822C40.5861 3.50622 43.6968 3.58893 46.7339 4.0653C48.7584 4.40584 50.8386 4.91292 52.2936 6.20595C53.7666 7.49115 54.2874 9.60128 55.2376 11.5299C55.681 12.4606 56.5934 13.0646 57.536 13.2668C61.4098 14.1419 65.397 15.4191 68.0317 18.4042C70.7056 21.4042 70.7906 25.7979 70.3779 29.739C70.2319 31.1889 70.0247 32.6375 69.8144 34.0849Z" fill="#C4B097"/>
<path d="M64.677 31.6518C64.619 30.5525 64.1674 29.4925 63.594 28.55C61.5132 25.0423 56.9824 23.068 52.9136 24.1532C47.2469 25.017 41.2722 24.7488 35.4484 24.7712C25.5661 24.6817 15.6777 24.4672 5.78844 24.1865C4.69352 24.1538 3.57504 24.1173 2.5 24.0798C3.57066 24.1839 4.68562 24.2835 5.77756 24.3762C15.6418 25.1963 25.5354 25.6814 35.4409 25.7711C41.3042 25.7433 47.1915 25.9409 53.0864 24.8468C56.8532 23.716 61.1858 25.3295 63.4349 28.6539C64.0464 29.5462 64.5518 30.5599 64.677 31.6518Z" fill="#C4B097"/>
<path d="M63.9918 25.4535C63.7615 24.4159 63.112 23.4985 62.3252 22.78C59.8618 20.587 56.3235 20.2822 53.1636 20.6126C46.9168 21.0382 40.5281 20.6836 34.2058 20.536C24.6994 20.2404 15.1825 19.9048 5.66474 19.6035C4.61157 19.5695 3.53374 19.5337 2.5 19.5C3.52942 19.6003 4.60345 19.6993 5.6532 19.7932C15.1409 20.6336 24.6537 21.2395 34.1755 21.5356C40.5187 21.682 46.8821 21.9233 53.2427 21.2481C56.3045 20.815 59.6945 20.9395 62.2014 22.9242C63.0044 23.5785 63.6963 24.4342 63.9918 25.4535Z" fill="#C4B097"/>
<path d="M33.6807 7.02566C33.1833 7.00165 32.6596 6.97487 32.1504 6.94629C27.5446 6.67804 22.9572 6.3635 18.3566 6.17255C13.757 5.98035 9.15524 5.86377 4.52868 5.94412C4.02217 5.95591 3.50288 5.96837 3 6C3.50229 6.03504 4.01791 6.08585 4.52162 6.13399C9.1193 6.59289 13.7082 6.97917 18.3141 7.17164C22.9189 7.36282 27.5353 7.4081 32.1509 7.13629C32.6608 7.10487 33.1845 7.0683 33.6807 7.02566Z" fill="#C4B097"/>
<path d="M33.6807 11.0464C33.1825 11.0224 32.6592 10.9972 32.1493 10.971C27.5403 10.7285 22.9463 10.4872 18.3437 10.3431C13.7388 10.1866 9.14851 10.1541 4.52771 10.0651C4.00837 10.0503 3.51454 10.0378 3 10C3.50575 10.1039 3.99604 10.1797 4.51164 10.2544C9.10476 10.883 13.6989 11.1859 18.3116 11.3426C22.9219 11.487 27.538 11.4586 32.1507 11.161C32.6608 11.1271 33.1837 11.0891 33.6807 11.0464Z" fill="#C4B097"/>
<path d="M32.9958 15.7371C32.5088 15.7129 31.9957 15.687 31.4985 15.6599C26.9891 15.4079 22.5012 15.138 18.0023 14.963C13.5057 14.7752 9.00438 14.7064 4.49111 14.5811C3.9966 14.5631 3.49099 14.5452 3 14.5C3.48101 14.6111 3.98294 14.6924 4.47308 14.7702C8.9539 15.4348 13.4571 15.7741 17.9625 15.9622C22.4698 16.1376 26.9842 16.1379 31.4996 15.8499C31.9972 15.817 32.51 15.7795 32.9958 15.7371Z" fill="#C4B097"/>
</svg>
