<svg width="70" height="37" viewBox="0 0 70 37" fill="none" xmlns="http://www.w3.org/2000/svg">
<path d="M8.05916 31.8773H0.546143V25.8946H33.4368V9.01346C33.4368 7.26048 34.889 5.85059 36.67 5.85059H43.6131C45.3119 5.85059 46.8572 6.82625 47.5477 8.3648L48.0519 9.46913L50.4685 14.7388L56.9075 15.7038C61.0887 16.3256 64.1629 19.8423 64.1629 23.9701V31.872H60.7763M49.9863 31.872H18.8054M8.05916 31.2233C8.05916 28.307 10.4758 25.9483 13.4514 25.9483C16.4271 25.9483 18.8437 28.3124 18.8437 31.2233C18.8437 34.1342 16.4271 36.4983 13.4514 36.4983C10.4758 36.4983 8.05916 34.1342 8.05916 31.2233ZM60.0968 31.2233C60.0968 31.4377 60.0859 31.6575 60.0585 31.872C59.7351 34.4773 57.461 36.493 54.71 36.493C51.9591 36.493 49.6739 34.4719 49.3506 31.872C49.3232 31.6575 49.3123 31.4377 49.3123 31.2233C49.3123 28.3017 51.7289 25.9375 54.7155 25.9375C57.7021 25.9375 60.1023 28.3017 60.1023 31.2233H60.0968Z" stroke="black" stroke-miterlimit="10"/>
<path d="M67.8472 32.5833C69.5597 22.4441 70.5872 14.2354 54.3186 11.0524C51.0649 5.35652 53.4623 1.50344 35.4812 1.50344C17.3289 1.50344 12.7052 1.50344 0.717773 0.498291" stroke="url(#paint0_linear_2013_180)"/>
<path d="M62.7099 30.1503C62.4816 26.9673 60.1412 21.0704 52.6063 22.9467C45.0713 24.8229 14.4178 23.3934 0.032959 22.4441" stroke="url(#paint1_linear_2013_180)"/>
<path d="M62.0246 23.9518C61.568 22.0532 58.7709 18.4905 51.236 19.4286C43.701 20.3668 14.3034 18.8144 0.546387 17.9209" stroke="url(#paint2_linear_2013_180)"/>
<path d="M31.7137 5.52395C22.7517 5.69148 4.31392 4.5188 1.23145 4.5188" stroke="url(#paint3_linear_2013_180)"/>
<path d="M31.7137 9.5447C22.7517 9.71223 4.31392 8.53955 1.23145 8.53955" stroke="url(#paint4_linear_2013_180)"/>
<path d="M31.0286 14.2354C22.0666 14.4029 3.62886 13.2302 0.546387 13.2302" stroke="url(#paint5_linear_2013_180)"/>
<defs>
<linearGradient id="paint0_linear_2013_180" x1="34.7389" y1="0.498291" x2="34.7389" y2="32.5833" gradientUnits="userSpaceOnUse">
<stop stop-color="#C4B097"/>
<stop offset="1" stop-color="#5E5448" stop-opacity="0"/>
</linearGradient>
<linearGradient id="paint1_linear_2013_180" x1="0.032959" y1="26.2972" x2="62.7099" y2="26.2972" gradientUnits="userSpaceOnUse">
<stop stop-color="#C4B097"/>
<stop offset="1" stop-color="#5E5448" stop-opacity="0"/>
</linearGradient>
<linearGradient id="paint2_linear_2013_180" x1="0.546387" y1="20.9363" x2="62.0246" y2="20.9363" gradientUnits="userSpaceOnUse">
<stop stop-color="#C4B097"/>
<stop offset="1" stop-color="#5E5448" stop-opacity="0"/>
</linearGradient>
<linearGradient id="paint3_linear_2013_180" x1="1.23145" y1="5.06387" x2="31.7137" y2="5.06387" gradientUnits="userSpaceOnUse">
<stop stop-color="#918270" stop-opacity="0.5"/>
<stop offset="0.543269" stop-color="#C4B097"/>
<stop offset="1" stop-color="#5E5448" stop-opacity="0"/>
</linearGradient>
<linearGradient id="paint4_linear_2013_180" x1="1.23145" y1="9.08462" x2="31.7137" y2="9.08462" gradientUnits="userSpaceOnUse">
<stop stop-color="#918270" stop-opacity="0.5"/>
<stop offset="0.543269" stop-color="#C4B097"/>
<stop offset="1" stop-color="#5E5448" stop-opacity="0"/>
</linearGradient>
<linearGradient id="paint5_linear_2013_180" x1="0.546387" y1="13.7753" x2="31.0286" y2="13.7753" gradientUnits="userSpaceOnUse">
<stop stop-color="#918270" stop-opacity="0.5"/>
<stop offset="0.543269" stop-color="#C4B097"/>
<stop offset="1" stop-color="#5E5448" stop-opacity="0"/>
</linearGradient>
</defs>
</svg>
