<svg width="48" height="48" viewBox="0 0 48 48" xmlns="http://www.w3.org/2000/svg">
  <rect width="48" height="48" fill="currentColor"/>
  <mask id="icon-mask" style="mask-type:alpha" maskUnits="userSpaceOnUse" x="12" y="12" width="24" height="24">
    <rect x="12" y="12" width="24" height="24" fill="none"/>
  </mask>
  <g mask="url(#icon-mask)">
    <path d="M31.8 34.6L28.775 31.575C28.3583 31.8417 27.9167 32.0708 27.45 32.2625C26.9833 32.4542 26.5 32.6083 26 32.725V30.675C26.2333 30.5917 26.4625 30.5083 26.6875 30.425C26.9125 30.3417 27.125 30.2417 27.325 30.125L24 26.8V32L19 27H15V21H18.2L13.4 16.2L14.8 14.8L33.2 33.2L31.8 34.6ZM31.6 28.8L30.15 27.35C30.4333 26.8333 30.6458 26.2917 30.7875 25.725C30.9292 25.1583 31 24.575 31 23.975C31 22.4083 30.5417 21.0083 29.625 19.775C28.7083 18.5417 27.5 17.7083 26 17.275V15.225C28.0667 15.6917 29.75 16.7375 31.05 18.3625C32.35 19.9875 33 21.8583 33 23.975C33 24.8583 32.8792 25.7083 32.6375 26.525C32.3958 27.3417 32.05 28.1 31.6 28.8ZM28.25 25.45L26 23.2V19.95C26.7833 20.3167 27.3958 20.8667 27.8375 21.6C28.2792 22.3333 28.5 23.1333 28.5 24C28.5 24.25 28.4792 24.4958 28.4375 24.7375C28.3958 24.9792 28.3333 25.2167 28.25 25.45ZM24 21.2L21.4 18.6L24 16V21.2ZM22 27.15V24.8L20.2 23H17V25H19.85L22 27.15Z" fill="#1D1D1D"/>
  </g>
</svg>
