<svg width="48" height="48" viewBox="0 0 48 48" fill="none" xmlns="http://www.w3.org/2000/svg">
  <path d="M28 41.45V37.35C31 36.4833 33.4167 34.8167 35.25 32.35C37.0833 29.8833 38 27.0833 38 23.95C38 20.8167 37.0833 18.0166 35.25 15.55C33.4167 13.0833 31 11.4166 28 10.55V6.44996C32.1333 7.38329 35.5 9.47496 38.1 12.725C40.7 15.975 42 19.7167 42 23.95C42 28.1833 40.7 31.925 38.1 35.175C35.5 38.425 32.1333 40.5166 28 41.45ZM6 30V17.9999H14L24 7.99994V40L14 30H6ZM28 32V15.9C29.5667 16.6333 30.7917 17.7333 31.675 19.2C32.5583 20.6666 33 22.2666 33 24C33 25.7 32.5583 27.275 31.675 28.725C30.7917 30.175 29.5667 31.2666 28 32ZM20 17.6999L15.7 22H10V26H15.7L20 30.3V17.6999Z" fill="currentColor"/>
</svg>
