<svg width="32" height="32" viewBox="0 0 32 32" fill="none" xmlns="http://www.w3.org/2000/svg">
<g clip-path="url(#clip0_4899_67934)">
<g clip-path="url(#clip1_4899_67934)">
<g clip-path="url(#clip2_4899_67934)">
<path d="M22.4437 21.7679V1.3781C22.4437 0.788952 21.9653 0.310547 21.3761 0.310547H7.37615C6.787 0.310547 6.30859 0.788952 6.30859 1.3781V28.8842C6.30859 29.4733 6.787 29.9517 7.37615 29.9517H14.375" stroke="black" stroke-miterlimit="10"/>
<path d="M10.293 13.647L12.8954 9.1376C12.6628 8.74779 12.5034 8.30704 12.4347 7.85964C12.3107 7.06673 12.4635 6.24502 12.8666 5.54735C13.5355 4.38899 14.7824 3.71346 16.118 3.78212L16.4547 3.79984L15.0017 6.31368L15.757 7.62044H17.2653L18.716 5.10659L18.8998 5.39009C19.6285 6.51302 19.664 7.93051 18.9973 9.08666C18.5898 9.79541 17.9718 10.3248 17.2121 10.6171C16.7913 10.781 16.3328 10.863 15.8766 10.8563L13.2719 15.3657" stroke="#B2966B" stroke-miterlimit="10"/>
<path d="M18.0375 14.9766L18.4805 21.4749L24.6931 23.8514V31.6897H16.8969L11.9844 24.3409L13.5835 23.0009L15.8138 25.1449L16.0353 14.9766H18.0375Z" stroke="black" stroke-miterlimit="10"/>
</g>
</g>
</g>
<defs>
<clipPath id="clip0_4899_67934">
<rect width="32" height="32" fill="white"/>
</clipPath>
<clipPath id="clip1_4899_67934">
<rect width="32" height="32" fill="white"/>
</clipPath>
<clipPath id="clip2_4899_67934">
<rect width="32" height="32" fill="white"/>
</clipPath>
</defs>
</svg>
