<?xml version="1.0" standalone="no"?>
<!DOCTYPE svg PUBLIC "-//W3C//DTD SVG 20010904//EN"
 "http://www.w3.org/TR/2001/REC-SVG-20010904/DTD/svg10.dtd">
<svg version="1.0" xmlns="http://www.w3.org/2000/svg"
 width="250.000000pt" height="252.000000pt" viewBox="0 0 250.000000 252.000000"
 preserveAspectRatio="xMidYMid meet">

<g transform="translate(0.000000,252.000000) scale(0.100000,-0.100000)"
fill="#000000" stroke="none">
<path d="M1020 2455 c-503 -79 -907 -481 -991 -985 -16 -97 -16 -285 0 -380
21 -122 60 -238 117 -350 121 -233 295 -409 517 -521 172 -87 297 -119 502
-126 128 -5 166 -2 258 16 504 101 880 491 958 995 15 96 5 363 -16 441 -70
255 -158 410 -331 582 -266 262 -646 385 -1014 328z m315 -95 c331 -38 636
-238 804 -528 57 -99 83 -158 117 -277 27 -94 29 -111 29 -275 -1 -160 -3
-184 -28 -275 -222 -805 -1194 -1082 -1802 -513 -314 293 -423 754 -274 1162
75 206 236 412 414 530 216 144 476 206 740 176z"/>
<path d="M1150 2284 c0 -11 38 -211 85 -444 47 -234 85 -428 85 -432 0 -14 34
-9 206 32 93 22 275 65 404 96 129 30 236 57 238 59 15 15 -86 220 -151 303
-22 30 -78 88 -123 130 -174 163 -393 256 -636 269 -102 6 -108 5 -108 -13z"/>
<path d="M970 2257 c0 -40 212 -1063 222 -1073 7 -6 76 -39 153 -74 138 -61
476 -214 647 -292 48 -22 92 -37 98 -33 24 15 6 35 -52 58 -51 21 -368 164
-588 265 -25 11 -88 39 -140 62 -52 23 -96 43 -97 44 -2 1 -34 160 -73 352
-39 192 -86 426 -105 520 -19 94 -35 174 -35 178 0 3 -7 6 -15 6 -8 0 -15 -6
-15 -13z"/>
<path d="M830 2226 c-199 -83 -356 -211 -474 -385 -55 -81 -97 -173 -133 -288
-25 -82 -27 -100 -27 -273 0 -173 2 -191 27 -274 59 -192 132 -313 271 -452
246 -245 613 -348 941 -264 106 27 198 61 188 70 -7 7 -110 60 -685 355 -86
44 -121 57 -131 50 -93 -68 -99 -70 -171 -70 -49 0 -83 6 -108 19 -50 24 -122
89 -157 140 -45 65 -93 165 -87 181 3 8 18 21 34 29 27 14 32 13 143 -44 63
-33 119 -59 124 -60 10 0 95 160 95 178 0 4 -54 34 -119 67 l-119 58 -4 40
c-5 50 7 56 131 70 238 26 398 -75 395 -248 l-2 -60 227 -115 c124 -63 343
-175 485 -249 l259 -135 29 35 c16 19 45 55 63 81 l35 47 -68 32 c-37 17 -132
60 -212 96 -80 36 -239 108 -355 160 -115 52 -226 102 -246 110 l-36 14 -107
537 c-59 295 -110 545 -112 555 -7 22 -27 21 -94 -7z m18 -149 c6 -47 -85
-167 -188 -250 -53 -42 -153 -87 -194 -87 -27 0 -40 6 -51 24 -15 23 -14 28
19 93 19 37 35 64 36 58 0 -5 8 2 18 16 9 15 37 43 62 63 25 21 53 44 62 51
30 25 122 68 158 75 44 9 74 -8 78 -43z"/>
</g>
</svg>
