<svg width="36" height="36" viewBox="0 0 36 36" fill="none" xmlns="http://www.w3.org/2000/svg">
<path fill-rule="evenodd" clip-rule="evenodd" d="M24.7214 14.0982L17.0181 21.7753L12.9382 17.7136L13.5567 17.0924L17.0178 20.5381L24.1027 13.4773L24.7214 14.0982Z" fill="black"/>
<path fill-rule="evenodd" clip-rule="evenodd" d="M17.7094 1.18224C8.42117 1.34274 1.02169 9.00245 1.18219 18.2907C1.3427 27.5789 9.00241 34.9784 18.2906 34.8179C27.5789 34.6573 34.9783 26.9976 34.8178 17.7094C34.6573 8.42121 26.9976 1.02173 17.7094 1.18224ZM0.305765 18.3058C0.136896 8.53355 7.92199 0.474676 17.6942 0.305807C27.4665 0.136938 35.5254 7.92202 35.6942 17.6943C35.8631 27.4665 28.078 35.5254 18.3058 35.6943C8.53352 35.8632 0.474634 28.0781 0.305765 18.3058Z" fill="#C4B097"/>
<path fill-rule="evenodd" clip-rule="evenodd" d="M4.4502 18.0151C4.4502 15.5628 5.1003 13.2605 6.24511 11.2744L7.00454 11.7122C5.93488 13.5679 5.32676 15.7196 5.32676 18.0151C5.32676 23.8401 9.25458 28.7497 14.6096 30.2294L14.3762 31.0743C8.65045 29.4922 4.4502 24.2438 4.4502 18.0151ZM30.6757 18.0151C30.6757 15.7233 30.0715 13.5717 29.0023 11.7209L29.7613 11.2824C30.9066 13.265 31.5523 15.5676 31.5523 18.0151C31.5523 24.2438 27.3521 29.4921 21.6306 31.0742L21.397 30.2294C26.7478 28.7498 30.6757 23.8401 30.6757 18.0151Z" fill="#C4B097"/>
<path fill-rule="evenodd" clip-rule="evenodd" d="M17.6777 3.13005L17.9991 2.7832L18.3203 3.13013L18.3206 3.13046L18.3216 3.13157L18.3287 3.13906C18.3354 3.14613 18.3462 3.15732 18.3609 3.17235C18.3903 3.20242 18.4356 3.24785 18.4966 3.30644C18.6184 3.42365 18.8025 3.59343 19.0465 3.79831C19.5348 4.20827 20.2618 4.75765 21.2089 5.3077C23.1031 6.40774 25.8713 7.50693 29.3733 7.50693H29.8116V11.6147L29.8117 11.6233C29.8118 11.6286 29.8119 11.6354 29.8121 11.6436C29.8121 11.6488 29.8122 11.6545 29.8123 11.6608C29.8127 11.6935 29.813 11.7412 29.813 11.8032C29.8129 11.9271 29.8112 12.108 29.8048 12.3392C29.7921 12.8014 29.7606 13.465 29.6857 14.2759C29.5359 15.8966 29.2122 18.1121 28.5152 20.4878C27.1239 25.2295 24.2214 30.6822 18.1696 33.2407L17.9914 33.316L17.8157 33.2351C11.7327 30.4349 8.83133 24.9905 7.44989 20.3032C6.75821 17.9563 6.44269 15.7846 6.29981 14.2001C6.22832 13.4072 6.19993 12.76 6.18944 12.3095C6.1842 12.0842 6.18343 11.908 6.184 11.7872C6.18428 11.7269 6.1849 11.6804 6.18546 11.6485C6.18574 11.6326 6.186 11.6204 6.1862 11.6119L6.18637 11.605V7.50693H6.62466C10.1245 7.50693 12.8927 6.40776 14.7875 5.30768C15.7349 4.75761 16.4623 4.2082 16.9509 3.79822C17.1952 3.59332 17.3794 3.42354 17.5014 3.30631C17.5623 3.24771 17.6077 3.20228 17.6371 3.17221C17.6519 3.15717 17.6626 3.14598 17.6694 3.1389L17.6765 3.13141L17.6775 3.1303L17.6777 3.13005ZM7.06274 11.6239L7.0627 11.6254L7.06252 11.6327C7.06236 11.6394 7.06213 11.6499 7.06188 11.6639C7.06139 11.6921 7.06081 11.7349 7.06055 11.7914C7.06002 11.9044 7.06072 12.0724 7.06577 12.2891C7.07586 12.7225 7.10329 13.3502 7.17283 14.1213C7.312 15.6648 7.6193 17.7773 8.2907 20.0554C9.62165 24.5714 12.3644 29.6812 18.0064 32.3567C23.5906 29.914 26.3314 24.8173 27.6741 20.241C28.3511 17.9335 28.6667 15.7763 28.8128 14.1953C28.8858 13.4053 28.9163 12.7607 28.9286 12.315C28.9348 12.0922 28.9364 11.9191 28.9364 11.8026C28.9365 11.7444 28.9361 11.7003 28.9358 11.6711C28.9356 11.6566 28.9354 11.6457 28.9353 11.6388L28.9352 11.6312L28.9351 11.6296L28.935 11.6244V8.37802C25.4509 8.29094 22.6839 7.17793 20.7687 6.06571C19.7714 5.48651 19.0034 4.90664 18.4829 4.46965C18.286 4.30434 18.1243 4.15932 17.9988 4.04229C17.8733 4.15933 17.7114 4.30439 17.5143 4.46974C16.9935 4.9067 16.2252 5.48655 15.2276 6.06573C13.3121 7.17789 10.5451 8.29089 7.06294 8.37802V11.6174L7.06274 11.6239Z" fill="black"/>
</svg>
