<svg width="32" height="32" viewBox="0 0 32 32" fill="none" xmlns="http://www.w3.org/2000/svg">
<g clip-path="url(#clip0_4899_67960)">
<path fill-rule="evenodd" clip-rule="evenodd" d="M21.974 12.5317L15.1265 19.3558L11.5 15.7454L12.0497 15.1933L15.1262 18.2561L21.424 11.9798L21.974 12.5317Z" fill="black"/>
<path fill-rule="evenodd" clip-rule="evenodd" d="M15.7417 1.05088C7.48549 1.19355 0.908169 8.00218 1.05084 16.2584C1.19351 24.5146 8.00214 31.0919 16.2583 30.9492C24.5145 30.8065 31.0918 23.9979 30.9492 15.7417C30.8065 7.48552 23.9979 0.908211 15.7417 1.05088ZM0.271791 16.2718C0.121685 7.58538 7.04177 0.42194 15.7282 0.271834C24.4147 0.121728 31.5781 7.0418 31.7282 15.7283C31.8783 24.4147 24.9583 31.5781 16.2718 31.7283C7.58535 31.8784 0.421897 24.9583 0.271791 16.2718Z" fill="#C4B097"/>
<path fill-rule="evenodd" clip-rule="evenodd" d="M3.95508 16.0134C3.95508 13.8336 4.53295 11.7871 5.55056 10.0217L6.22561 10.4108C5.2748 12.0603 4.73424 13.973 4.73424 16.0134C4.73424 21.1912 8.22564 25.5553 12.9857 26.8705L12.7782 27.6216C7.68864 26.2153 3.95508 21.5501 3.95508 16.0134ZM27.2666 16.0134C27.2666 13.9763 26.7296 12.0638 25.7792 10.4186L26.4539 10.0288C27.4719 11.7911 28.0458 13.8378 28.0458 16.0134C28.0458 21.55 24.3123 26.2152 19.2265 27.6215L19.0189 26.8706C23.7752 25.5554 27.2666 21.1912 27.2666 16.0134Z" fill="#C4B097"/>
<path fill-rule="evenodd" clip-rule="evenodd" d="M15.7129 2.78226L15.9986 2.47395L16.284 2.78233L16.2843 2.78263L16.2852 2.78361L16.2915 2.79027C16.2975 2.79656 16.3071 2.8065 16.3201 2.81986C16.3463 2.84659 16.3866 2.88697 16.4407 2.93905C16.549 3.04324 16.7127 3.19415 16.9296 3.37627C17.3636 3.74068 18.0098 4.22902 18.8517 4.71795C20.5354 5.69576 22.9961 6.67282 26.1089 6.67282H26.4985V10.3242L26.4987 10.3318C26.4987 10.3365 26.4988 10.3426 26.4989 10.3499C26.499 10.3545 26.4991 10.3596 26.4991 10.3652C26.4995 10.3942 26.4998 10.4366 26.4998 10.4917C26.4997 10.6019 26.4982 10.7627 26.4925 10.9681C26.4812 11.379 26.4532 11.9689 26.3866 12.6897C26.2535 14.1303 25.9658 16.0996 25.3462 18.2113C24.1095 22.4262 21.5295 27.2731 16.1501 29.5473L15.9917 29.6142L15.8355 29.5423C10.4284 27.0532 7.84942 22.2138 6.62147 18.0473C6.00665 15.9611 5.72619 14.0308 5.59918 12.6223C5.53564 11.9175 5.5104 11.3422 5.50108 10.9417C5.49641 10.7415 5.49573 10.5849 5.49623 10.4775C5.49649 10.4239 5.49704 10.3826 5.49753 10.3543C5.49778 10.3401 5.49802 10.3292 5.4982 10.3217L5.49835 10.3156V6.67282H5.88793C8.99891 6.67282 11.4596 5.69578 13.1438 4.71793C13.9859 4.22898 14.6325 3.74062 15.0668 3.37619C15.2839 3.19406 15.4477 3.04314 15.5561 2.93894C15.6103 2.88685 15.6506 2.84647 15.6768 2.81974C15.6899 2.80637 15.6995 2.79642 15.7054 2.79013L15.7118 2.78347L15.7127 2.78249L15.7129 2.78226ZM6.27734 10.3324L6.2773 10.3337L6.27714 10.3402C6.277 10.3461 6.2768 10.3554 6.27658 10.3679C6.27614 10.393 6.27563 10.431 6.27539 10.4812C6.27492 10.5817 6.27555 10.731 6.28003 10.9236C6.289 11.3089 6.31339 11.8668 6.3752 12.5523C6.49891 13.9242 6.77206 15.8021 7.36886 17.827C8.55193 21.8413 10.9899 26.3833 16.005 28.7615C20.9688 26.5902 23.405 22.0598 24.5985 17.992C25.2003 15.9409 25.4809 14.0234 25.6107 12.618C25.6756 11.9158 25.7027 11.3429 25.7137 10.9466C25.7191 10.7486 25.7205 10.5948 25.7206 10.4912C25.7206 10.4394 25.7203 10.4002 25.72 10.3743C25.7199 10.3614 25.7197 10.3518 25.7196 10.3456L25.7195 10.3388L25.7195 10.3374L25.7194 10.3328V7.44713C22.6224 7.36972 20.1628 6.38038 18.4604 5.39173C17.5739 4.87689 16.8913 4.36145 16.4286 3.97302C16.2536 3.82608 16.1099 3.69717 15.9983 3.59315C15.8867 3.69718 15.7428 3.82611 15.5676 3.9731C15.1047 4.36151 14.4217 4.87693 13.535 5.39176C11.8323 6.38034 9.37279 7.36967 6.27751 7.44712V10.3265L6.27734 10.3324Z" fill="black"/>
</g>
<defs>
<clipPath id="clip0_4899_67960">
<rect width="32" height="32" fill="white"/>
</clipPath>
</defs>
</svg>
