<svg width="32" height="32" viewBox="0 0 32 32" fill="none" xmlns="http://www.w3.org/2000/svg">
<path d="M25.0474 5.16655C28.5408 7.91101 30.7852 12.1758 30.7852 16.963C30.7852 22.6187 27.655 27.5428 23.032 30.0956H8.53833C3.91529 27.5428 0.785156 22.6187 0.785156 16.963C0.785156 12.1758 3.0295 7.91101 6.5229 5.16406" stroke="black" stroke-width="0.696691" stroke-miterlimit="10"/>
<path d="M22.7882 3.69911C20.6981 2.59187 18.3144 1.96484 15.7839 1.96484C13.2534 1.96484 10.8723 2.59187 8.78467 3.69911" stroke="#C4B097" stroke-width="0.696691" stroke-miterlimit="10"/>
<path d="M13.1885 8.10316C14.0121 7.86181 14.8829 7.73242 15.7836 7.73242C16.6844 7.73242 17.5577 7.86181 18.3813 8.10565" stroke="#C4B097" stroke-width="0.696691" stroke-miterlimit="10"/>
<path d="M10.9419 5.85537C12.4249 5.20595 14.0621 4.84766 15.7839 4.84766C17.5057 4.84766 19.1454 5.20595 20.6284 5.85786" stroke="#C4B097" stroke-width="0.696691" stroke-miterlimit="10"/>
<path d="M8.96143 21.998H10.942V23.1923H20.6285V21.998H22.6066V13.8467H20.6285V12.6523H10.942V13.8467H8.96143V21.998Z" stroke="#C4B097" stroke-width="0.696691" stroke-miterlimit="10"/>
<path d="M8.96117 14.4785L0.844727 15.6256" stroke="black" stroke-width="0.696691" stroke-miterlimit="10"/>
<path d="M8.96122 21.1758L1.72559 22.1984" stroke="black" stroke-width="0.696691" stroke-miterlimit="10"/>
<path d="M4.86328 15.0547V21.7554" stroke="black" stroke-width="0.696691" stroke-miterlimit="10"/>
<path d="M22.6064 14.4785L30.7254 15.6256" stroke="black" stroke-width="0.696691" stroke-miterlimit="10"/>
<path d="M29.8445 22.1984L22.6089 21.1758" stroke="black" stroke-width="0.696691" stroke-miterlimit="10"/>
<path d="M26.7046 15.0547V21.7554" stroke="black" stroke-width="0.696691" stroke-miterlimit="10"/>
</svg>
