<svg width="32" height="32" viewBox="0 0 32 32" fill="none" xmlns="http://www.w3.org/2000/svg">
<g clip-path="url(#clip0_4903_156658)">
<path d="M28 26.4004V18.3317C28 17.54 27.3586 16.8967 26.565 16.8967H24.5984V8.38493C24.5984 8.11526 24.5907 7.84753 24.5753 7.57786L24.4463 6.2334C24.3673 4.80996 24.0764 3.40771 23.5833 2.07095C23.3464 1.42761 22.7339 1 22.0482 1H9.52808C8.84237 1 8.22985 1.42761 7.99293 2.07095C7.50176 3.40771 7.2109 4.81189 7.13001 6.2334C7.13001 6.2334 6.97784 8.11526 6.97784 8.38493V16.8986H5.01507C4.22342 16.8986 3.58008 17.54 3.58008 18.3336V26.4023H28V26.4004Z" stroke="black" stroke-miterlimit="10"/>
<path d="M3.58008 22.6886H28" stroke="black" stroke-miterlimit="10"/>
<path d="M7.90281 26.566V27.7429C7.90281 28.2148 7.51951 28.5981 7.04759 28.5981H5.58178C5.10987 28.5981 4.72656 28.2148 4.72656 27.7429V26.566" stroke="black" stroke-miterlimit="10"/>
<path d="M23.707 26.566V27.7429C23.707 28.2148 24.0903 28.5981 24.5623 28.5981H26.0281C26.5 28.5981 26.8833 28.2148 26.8833 27.7429V26.566" stroke="black" stroke-miterlimit="10"/>
<path d="M7.00193 7.5798H5.00449C4.56533 7.5798 4.20898 7.93614 4.20898 8.37531V12.5532C4.20898 12.819 4.34189 13.0675 4.5634 13.2138L5.51878 13.8514C5.57464 13.8899 5.64205 13.9092 5.70947 13.9092H7.00193" stroke="black" stroke-miterlimit="10"/>
<path d="M24.5781 7.5798H26.5756C27.0147 7.5798 27.3711 7.93614 27.3711 8.37531V12.5532C27.3711 12.819 27.2382 13.0675 27.0167 13.2138L26.0613 13.8514C26.0054 13.8899 25.938 13.9092 25.8706 13.9092H24.5781" stroke="black" stroke-miterlimit="10"/>
<path d="M7.01172 7.5798H24.5764" stroke="black" stroke-miterlimit="10"/>
<path d="M24.5782 12.0678C24.5782 12.0678 19.9419 11.6787 15.7929 11.6787C11.6439 11.6787 6.99609 12.0678 6.99609 12.0678" stroke="black" stroke-miterlimit="10"/>
<path d="M8.96484 22.6886V15.0995C8.96484 14.7547 9.23065 14.4754 9.5581 14.4754H21.9973C22.3247 14.4754 22.5906 14.7547 22.5906 15.0995V22.6886" stroke="black" stroke-miterlimit="10"/>
<path d="M22.5918 18.8344L24.5989 16.8986" stroke="black" stroke-miterlimit="10"/>
<path d="M15.7793 13.1464V10.469" stroke="#B3976B" stroke-miterlimit="10"/>
<path d="M11.6348 18.634H19.8422" stroke="#B3976B" stroke-miterlimit="10"/>
<path d="M11.6348 16.8735H19.8422" stroke="#B3976B" stroke-miterlimit="10"/>
<path d="M11.6348 20.4042H19.8422" stroke="#B3976B" stroke-miterlimit="10"/>
<path d="M22.5918 20.0036H28.0005" stroke="black" stroke-miterlimit="10"/>
<path d="M3.61133 20.0036H9.01808" stroke="black" stroke-miterlimit="10"/>
<path d="M6.98047 16.8986L8.96635 18.8344" stroke="black" stroke-miterlimit="10"/>
<path d="M1 29H31L32 32H0L1 29Z" fill="black"/>
</g>
<defs>
<clipPath id="clip0_4903_156658">
<rect width="32" height="32" fill="white"/>
</clipPath>
</defs>
</svg>
