<svg width="32" height="32" viewBox="0 0 32 32" fill="none" xmlns="http://www.w3.org/2000/svg">
<g clip-path="url(#clip0_4899_67942)">
<path d="M0 29.6797H25.4806" stroke="#C4B097" stroke-width="0.927198" stroke-miterlimit="10"/>
<path d="M25.4805 27.3555V32" stroke="#C4B097" stroke-width="0.927198" stroke-miterlimit="10"/>
<path d="M0.117188 27.3555V32" stroke="#C4B097" stroke-width="0.927198" stroke-miterlimit="10"/>
<path d="M29.6953 0V26.0536" stroke="#C4B097" stroke-width="0.927198" stroke-miterlimit="10"/>
<path d="M32.0007 0.141647H27.4688" stroke="#C4B097" stroke-width="0.927198" stroke-miterlimit="10"/>
<path d="M32.0007 26.0275H27.4688" stroke="#C4B097" stroke-width="0.927198" stroke-miterlimit="10"/>
<path d="M0.421442 16.7051H5.87793M19.5792 16.7051H25.0357M8.52063 15.2875H16.8055M12.7031 9.61347V6.84546M3.82491 13.4969L5.82696 15.4964V19.4843V11.6354C5.82696 11.2773 6.09633 10.99 6.42394 10.99H18.9786C19.3098 10.99 19.5756 11.281 19.5756 11.6354V19.4843V15.4964L21.6031 13.4969M21.5813 10.4043H22.8844C22.9536 10.4043 23.0191 10.3819 23.0773 10.3446L24.042 9.68435C24.264 9.5314 24.3987 9.27399 24.3987 9.00167V4.68179C24.3987 4.22667 24.0383 3.86108 23.5979 3.86108H21.8106M3.84311 3.86108H1.82651C1.38242 3.86108 1.02569 4.2304 1.02569 4.68179V9.00167C1.02569 9.27772 1.16038 9.5314 1.38243 9.68435L2.34704 10.3446C2.40528 10.3819 2.47081 10.4043 2.53997 10.4043H3.84311M20.7003 23.4946V24.7107C20.7003 25.1994 21.0862 25.5948 21.5631 25.5948H23.0446C23.5214 25.5948 23.9073 25.1994 23.9073 24.7107V23.4946M4.74951 23.4946V24.7107C4.74951 25.1994 4.36364 25.5948 3.88679 25.5948H2.40529C1.92844 25.5948 1.54259 25.1994 1.54259 24.7107V23.4946M0.388672 19.4843H25.0357M20.2599 8.50179C20.2599 8.50179 16.9001 8.0989 12.714 8.0989C8.5279 8.0989 5.14262 8.50179 5.14262 8.50179L5.16082 3.40222H20.2599V8.50179ZM25.0357 23.323V14.9779C25.0357 14.1572 24.3878 13.4932 23.5869 13.4932H21.6031V4.68924C21.6031 4.52137 21.5922 3.00307 21.5885 1.82798C21.5849 1.05577 20.9697 0.429041 20.2162 0.432771L5.20088 0.507385C4.45102 0.511116 3.84313 1.13784 3.83949 1.90631C3.82493 4.62583 3.82491 4.44676 3.82491 4.68924V13.4932H1.84106C1.04024 13.4932 0.392316 14.1572 0.392316 14.9779V23.323H25.0393H25.0357Z" stroke="black" stroke-width="0.745307"/>
</g>
<defs>
<clipPath id="clip0_4899_67942">
<rect width="32" height="32" fill="white"/>
</clipPath>
</defs>
</svg>
