<svg width="32" height="32" viewBox="0 0 32 32" fill="none" xmlns="http://www.w3.org/2000/svg">
<path d="M9.94706 3.53366C15.2418 0.910895 21.8409 1.8039 26.2532 6.2162C31.7871 11.75 31.7871 20.7188 26.2532 26.2491C20.7194 31.7829 11.7507 31.7829 6.22035 26.2491C1.80805 21.8368 0.915045 15.2377 3.53781 9.94292" stroke="#C4B097" stroke-width="0.9" stroke-miterlimit="10"/>
<path d="M6.6633 11.4797C4.68392 15.4701 5.3519 20.4379 8.67431 23.7603C11.7295 26.8155 16.177 27.6312 19.9775 26.2038C21.3592 25.6869 22.653 24.8713 23.7676 23.7603C24.8785 22.6493 25.6942 21.3555 26.211 19.9703C27.6384 16.1697 26.8228 11.7223 23.7676 8.66708C20.4451 5.34467 15.4773 4.67316 11.4869 6.65605" stroke="#C4B097" stroke-width="0.9" stroke-miterlimit="10"/>
<path d="M26.2075 19.9736C25.4094 19.397 23.7781 18.5673 21.8515 19.5271L11.0229 8.69847C11.0229 8.69847 11.5256 7.85469 11.4834 6.65932C11.4483 5.74522 11.0967 4.63072 9.94704 3.5338C9.92243 3.50567 9.8908 3.47755 9.86267 3.44942C7.46843 1.22394 5.70703 1.44895 4.28666 1.88139L6.74418 4.34946C7.02896 4.64127 7.15201 5.03504 7.09576 5.40771C7.0606 5.67842 6.93753 5.93507 6.72658 6.1425L6.43479 6.43431L6.143 6.72612C5.93908 6.93707 5.6824 7.06012 5.40817 7.09528C5.0355 7.15153 4.64177 7.02848 4.34996 6.7437L1.88188 4.28618C1.44944 5.70655 1.22441 7.46795 3.4499 9.86219C3.47803 9.89032 3.50615 9.92196 3.53428 9.94657C4.6312 11.0962 5.7457 11.4478 6.6598 11.483C7.85517 11.5216 8.69897 11.0224 8.69897 11.0224L19.5275 21.851C18.5677 23.7811 19.3975 25.4125 19.974 26.207" stroke="black" stroke-width="0.9" stroke-miterlimit="10"/>
<mask id="mask0_27_7565" style="mask-type:luminance" maskUnits="userSpaceOnUse" x="25" y="19" width="2" height="2">
<path d="M26.2285 19.0762L25.6308 19.2977L25.5956 19.4102C25.564 19.5086 25.5323 19.6071 25.4972 19.702C25.4761 19.7582 25.455 19.811 25.4304 19.8637L25.3953 19.9446L25.5535 20.4438C25.6273 20.493 25.6976 20.5387 25.7609 20.5844L26.3304 20.493L26.7418 19.9235L26.6504 19.3539C26.5273 19.2625 26.3832 19.1711 26.2285 19.0762Z" fill="white"/>
</mask>
<g mask="url(#mask0_27_7565)">
<path d="M9.94682 3.53269C15.2416 0.909918 21.8407 1.80292 26.253 6.21522C31.7868 11.749 31.7868 20.7178 26.253 26.2481C20.7192 31.7819 11.7504 31.7819 6.22011 26.2481C1.80781 21.8358 0.9148 15.2367 3.53757 9.94194" stroke="#C4B097" stroke-width="0.9" stroke-miterlimit="10"/>
<path d="M26.2073 19.9726C25.4092 19.396 23.7779 18.5663 21.8512 19.5261L11.0226 8.6975C11.0226 8.6975 11.5254 7.85371 11.4832 6.65835C11.448 5.74425 11.0965 4.62974 9.9468 3.53282C9.92219 3.5047 9.89055 3.47657 9.86243 3.44844C7.46818 1.22296 5.70679 1.44797 4.28641 1.88041L6.74394 4.34848C7.02871 4.64029 7.15177 5.03406 7.09551 5.40673C7.06036 5.67745 6.93729 5.9341 6.72634 6.14153L6.43455 6.43334L6.14275 6.72515C5.93884 6.93609 5.68215 7.05914 5.40792 7.0943C5.03525 7.15056 4.64152 7.0275 4.34972 6.74273L1.88163 4.2852C1.44919 5.70557 1.22417 7.46697 3.44966 9.86122C3.47778 9.88934 3.50591 9.92099 3.53403 9.9456C4.63095 11.0953 5.74546 11.4468 6.65956 11.482C7.85492 11.5207 8.69873 11.0214 8.69873 11.0214L19.5273 21.85C18.5675 23.7802 19.3972 25.4115 19.9738 26.206" stroke="black" stroke-width="0.9" stroke-miterlimit="10"/>
<path d="M6.66305 11.4787C4.68367 15.4691 5.35166 20.4369 8.67407 23.7593C11.7293 26.8145 16.1767 27.6302 19.9773 26.2028C21.359 25.686 22.6528 24.8703 23.7673 23.7593C24.8783 22.6483 25.6939 21.3545 26.2108 19.9693C27.6382 16.1688 26.8225 11.7213 23.7673 8.6661C20.4449 5.34369 15.4771 4.67218 11.4867 6.65508" stroke="#C4B097" stroke-width="0.9" stroke-miterlimit="10"/>
</g>
<mask id="mask1_27_7565" style="mask-type:luminance" maskUnits="userSpaceOnUse" x="19" y="25" width="2" height="2">
<path d="M19.9571 25.3906L19.8657 25.4293C19.8165 25.4504 19.7638 25.4715 19.711 25.4926C19.6161 25.5277 19.5177 25.5594 19.4227 25.591L19.3067 25.6297L19.0852 26.2274C19.1801 26.3856 19.2751 26.5262 19.363 26.6528L19.9325 26.7442L20.5021 26.3329L20.5935 25.7633C20.5478 25.7 20.5021 25.6297 20.4528 25.5559L19.9571 25.3977V25.3906Z" fill="white"/>
</mask>
<g mask="url(#mask1_27_7565)">
<path d="M9.94731 3.53366C15.2421 0.910895 21.8412 1.8039 26.2535 6.2162C31.7873 11.75 31.7873 20.7188 26.2535 26.2491C20.7196 31.7829 11.7509 31.7829 6.22059 26.2491C1.8083 21.8368 0.915289 15.2377 3.53806 9.94292" stroke="#C4B097" stroke-width="0.9" stroke-miterlimit="10"/>
<path d="M26.2077 19.9736C25.4097 19.397 23.7783 18.5673 21.8517 19.5271L11.0231 8.69847C11.0231 8.69847 11.5259 7.85469 11.4837 6.65932C11.4485 5.74522 11.0969 4.63072 9.94729 3.5338C9.92268 3.50567 9.89104 3.47755 9.86291 3.44942C7.46867 1.22394 5.70727 1.44895 4.2869 1.88139L6.74442 4.34946C7.0292 4.64127 7.15225 5.03504 7.096 5.40771C7.06084 5.67842 6.93777 5.93507 6.72683 6.1425L6.43503 6.43431L6.14324 6.72612C5.93933 6.93707 5.68264 7.06012 5.40841 7.09528C5.03574 7.15153 4.64201 7.02848 4.3502 6.7437L1.88212 4.28618C1.44968 5.70655 1.22466 7.46795 3.45014 9.86219C3.47827 9.89032 3.50639 9.92196 3.53452 9.94657C4.63144 11.0962 5.74595 11.4478 6.66005 11.483C7.85541 11.5216 8.69921 11.0224 8.69921 11.0224L19.5278 21.851C18.568 23.7811 19.3977 25.4125 19.9743 26.207" stroke="black" stroke-width="0.9" stroke-miterlimit="10"/>
<path d="M6.66354 11.4797C4.68416 15.4701 5.35215 20.4379 8.67456 23.7603C11.7298 26.8155 16.1772 27.6312 19.9778 26.2038C21.3595 25.6869 22.6533 24.8713 23.7678 23.7603C24.8788 22.6493 25.6944 21.3555 26.2112 19.9703C27.6386 16.1697 26.823 11.7223 23.7678 8.66708C20.4454 5.34467 15.4776 4.67316 11.4872 6.65605" stroke="#C4B097" stroke-width="0.9" stroke-miterlimit="10"/>
</g>
</svg>
