<svg width="399" height="375" viewBox="0 0 399 375" fill="none" xmlns="http://www.w3.org/2000/svg">
<g clip-path="url(#clip0_2220_93059)">
<circle cx="1.5" cy="1.90714" r="1.5" fill="#B3976B"/>
<circle cx="28.5" cy="1.90714" r="1.5" fill="#B3976B"/>
<circle cx="55.5" cy="1.90714" r="1.5" fill="#B3976B"/>
<circle cx="82.5" cy="1.90714" r="1.5" fill="#B3976B"/>
<circle cx="109.5" cy="1.90714" r="1.5" fill="#B3976B"/>
<circle cx="136.5" cy="1.90714" r="1.5" fill="#B3976B"/>
<circle cx="163.5" cy="1.90714" r="1.5" fill="#B3976B"/>
<circle cx="190.5" cy="1.90714" r="1.5" fill="#B3976B"/>
<circle cx="217.5" cy="1.90714" r="1.5" fill="#B3976B"/>
<circle cx="244.5" cy="1.90714" r="1.5" fill="#B3976B"/>
<circle cx="1.5" cy="28.9071" r="1.5" fill="#B3976B"/>
<circle cx="28.5" cy="28.9071" r="1.5" fill="#B3976B"/>
<circle cx="55.5" cy="28.9071" r="1.5" fill="#B3976B"/>
<circle cx="82.5" cy="28.9071" r="1.5" fill="#B3976B"/>
<circle cx="109.5" cy="28.9071" r="1.5" fill="#B3976B"/>
<circle cx="136.5" cy="28.9071" r="1.5" fill="#B3976B"/>
<circle cx="163.5" cy="28.9071" r="1.5" fill="#B3976B"/>
<circle cx="190.5" cy="28.9071" r="1.5" fill="#B3976B"/>
<circle cx="217.5" cy="28.9071" r="1.5" fill="#B3976B"/>
<circle cx="244.5" cy="28.9071" r="1.5" fill="#B3976B"/>
<circle cx="1.5" cy="55.9071" r="1.5" fill="#B3976B"/>
<circle cx="28.5" cy="55.9071" r="1.5" fill="#B3976B"/>
<circle cx="55.5" cy="55.9071" r="1.5" fill="#B3976B"/>
<circle cx="82.5" cy="55.9071" r="1.5" fill="#B3976B"/>
<circle cx="109.5" cy="55.9071" r="1.5" fill="#B3976B"/>
<circle cx="136.5" cy="55.9071" r="1.5" fill="#B3976B"/>
<circle cx="163.5" cy="55.9071" r="1.5" fill="#B3976B"/>
<circle cx="190.5" cy="55.9071" r="1.5" fill="#B3976B"/>
<circle cx="217.5" cy="55.9071" r="1.5" fill="#B3976B"/>
<circle cx="244.5" cy="55.9071" r="1.5" fill="#B3976B"/>
<circle cx="1.5" cy="82.9071" r="1.5" fill="#B3976B"/>
<circle cx="28.5" cy="82.9071" r="1.5" fill="#B3976B"/>
<circle cx="55.5" cy="82.9071" r="1.5" fill="#B3976B"/>
<circle cx="82.5" cy="82.9071" r="1.5" fill="#B3976B"/>
<circle cx="109.5" cy="82.9071" r="1.5" fill="#B3976B"/>
<circle cx="136.5" cy="82.9071" r="1.5" fill="#B3976B"/>
<circle cx="163.5" cy="82.9071" r="1.5" fill="#B3976B"/>
<circle cx="190.5" cy="82.9071" r="1.5" fill="#B3976B"/>
<circle cx="217.5" cy="82.9071" r="1.5" fill="#B3976B"/>
<circle cx="244.5" cy="82.9071" r="1.5" fill="#B3976B"/>
<circle cx="1.5" cy="109.907" r="1.5" fill="#B3976B"/>
<circle cx="28.5" cy="109.907" r="1.5" fill="#B3976B"/>
<circle cx="55.5" cy="109.907" r="1.5" fill="#B3976B"/>
<circle cx="82.5" cy="109.907" r="1.5" fill="#B3976B"/>
<circle cx="109.5" cy="109.907" r="1.5" fill="#B3976B"/>
<circle cx="136.5" cy="109.907" r="1.5" fill="#B3976B"/>
<circle cx="163.5" cy="109.907" r="1.5" fill="#B3976B"/>
<circle cx="190.5" cy="109.907" r="1.5" fill="#B3976B"/>
<circle cx="217.5" cy="109.907" r="1.5" fill="#B3976B"/>
<circle cx="244.5" cy="109.907" r="1.5" fill="#B3976B"/>
<circle cx="1.5" cy="136.907" r="1.5" fill="#B3976B"/>
<circle cx="28.5" cy="136.907" r="1.5" fill="#B3976B"/>
<circle cx="55.5" cy="136.907" r="1.5" fill="#B3976B"/>
<circle cx="82.5" cy="136.907" r="1.5" fill="#B3976B"/>
<circle cx="109.5" cy="136.907" r="1.5" fill="#B3976B"/>
<circle cx="136.5" cy="136.907" r="1.5" fill="#B3976B"/>
<circle cx="163.5" cy="136.907" r="1.5" fill="#B3976B"/>
<circle cx="190.5" cy="136.907" r="1.5" fill="#B3976B"/>
<circle cx="217.5" cy="136.907" r="1.5" fill="#B3976B"/>
<circle cx="244.5" cy="136.907" r="1.5" fill="#B3976B"/>
<circle cx="1.5" cy="163.907" r="1.5" fill="#B3976B"/>
<circle cx="28.5" cy="163.907" r="1.5" fill="#B3976B"/>
<circle cx="55.5" cy="163.907" r="1.5" fill="#B3976B"/>
<circle cx="82.5" cy="163.907" r="1.5" fill="#B3976B"/>
<circle cx="109.5" cy="163.907" r="1.5" fill="#B3976B"/>
<circle cx="136.5" cy="163.907" r="1.5" fill="#B3976B"/>
<circle cx="163.5" cy="163.907" r="1.5" fill="#B3976B"/>
<circle cx="190.5" cy="163.907" r="1.5" fill="#B3976B"/>
<circle cx="217.5" cy="163.907" r="1.5" fill="#B3976B"/>
<circle cx="244.5" cy="163.907" r="1.5" fill="#B3976B"/>
<circle cx="1.5" cy="190.907" r="1.5" fill="#B3976B"/>
<circle cx="28.5" cy="190.907" r="1.5" fill="#B3976B"/>
<circle cx="55.5" cy="190.907" r="1.5" fill="#B3976B"/>
<circle cx="82.5" cy="190.907" r="1.5" fill="#B3976B"/>
<circle cx="109.5" cy="190.907" r="1.5" fill="#B3976B"/>
<circle cx="136.5" cy="190.907" r="1.5" fill="#B3976B"/>
<circle cx="163.5" cy="190.907" r="1.5" fill="#B3976B"/>
<circle cx="190.5" cy="190.907" r="1.5" fill="#B3976B"/>
<circle cx="217.5" cy="190.907" r="1.5" fill="#B3976B"/>
<circle cx="244.5" cy="190.907" r="1.5" fill="#B3976B"/>
<circle cx="1.5" cy="217.907" r="1.5" fill="#B3976B"/>
<circle cx="28.5" cy="217.907" r="1.5" fill="#B3976B"/>
<circle cx="55.5" cy="217.907" r="1.5" fill="#B3976B"/>
<circle cx="82.5" cy="217.907" r="1.5" fill="#B3976B"/>
<circle cx="109.5" cy="217.907" r="1.5" fill="#B3976B"/>
<circle cx="136.5" cy="217.907" r="1.5" fill="#B3976B"/>
<circle cx="163.5" cy="217.907" r="1.5" fill="#B3976B"/>
<circle cx="190.5" cy="217.907" r="1.5" fill="#B3976B"/>
<circle cx="217.5" cy="217.907" r="1.5" fill="#B3976B"/>
<circle cx="244.5" cy="217.907" r="1.5" fill="#B3976B"/>
<circle cx="1.5" cy="244.907" r="1.5" fill="#B3976B"/>
<circle cx="28.5" cy="244.907" r="1.5" fill="#B3976B"/>
<circle cx="55.5" cy="244.907" r="1.5" fill="#B3976B"/>
<circle cx="82.5" cy="244.907" r="1.5" fill="#B3976B"/>
<circle cx="109.5" cy="244.907" r="1.5" fill="#B3976B"/>
<circle cx="136.5" cy="244.907" r="1.5" fill="#B3976B"/>
<circle cx="163.5" cy="244.907" r="1.5" fill="#B3976B"/>
<circle cx="190.5" cy="244.907" r="1.5" fill="#B3976B"/>
<circle cx="217.5" cy="244.907" r="1.5" fill="#B3976B"/>
<circle cx="244.5" cy="244.907" r="1.5" fill="#B3976B"/>
<circle cx="271.5" cy="1.90714" r="1.5" fill="#B3976B"/>
<circle cx="298.5" cy="1.90714" r="1.5" fill="#B3976B"/>
<circle cx="325.5" cy="1.90714" r="1.5" fill="#B3976B"/>
<circle cx="352.5" cy="1.90714" r="1.5" fill="#B3976B"/>
<circle cx="379.5" cy="1.90714" r="1.5" fill="#B3976B"/>
<circle cx="271.5" cy="28.9071" r="1.5" fill="#B3976B"/>
<circle cx="298.5" cy="28.9071" r="1.5" fill="#B3976B"/>
<circle cx="325.5" cy="28.9071" r="1.5" fill="#B3976B"/>
<circle cx="352.5" cy="28.9071" r="1.5" fill="#B3976B"/>
<circle cx="379.5" cy="28.9071" r="1.5" fill="#B3976B"/>
<circle cx="271.5" cy="55.9071" r="1.5" fill="#B3976B"/>
<circle cx="298.5" cy="55.9071" r="1.5" fill="#B3976B"/>
<circle cx="325.5" cy="55.9071" r="1.5" fill="#B3976B"/>
<circle cx="352.5" cy="55.9071" r="1.5" fill="#B3976B"/>
<circle cx="379.5" cy="55.9071" r="1.5" fill="#B3976B"/>
<circle cx="271.5" cy="82.9071" r="1.5" fill="#B3976B"/>
<circle cx="298.5" cy="82.9071" r="1.5" fill="#B3976B"/>
<circle cx="325.5" cy="82.9071" r="1.5" fill="#B3976B"/>
<circle cx="352.5" cy="82.9071" r="1.5" fill="#B3976B"/>
<circle cx="379.5" cy="82.9071" r="1.5" fill="#B3976B"/>
<circle cx="271.5" cy="109.907" r="1.5" fill="#B3976B"/>
<circle cx="298.5" cy="109.907" r="1.5" fill="#B3976B"/>
<circle cx="325.5" cy="109.907" r="1.5" fill="#B3976B"/>
<circle cx="352.5" cy="109.907" r="1.5" fill="#B3976B"/>
<circle cx="379.5" cy="109.907" r="1.5" fill="#B3976B"/>
<circle cx="271.5" cy="136.907" r="1.5" fill="#B3976B"/>
<circle cx="298.5" cy="136.907" r="1.5" fill="#B3976B"/>
<circle cx="325.5" cy="136.907" r="1.5" fill="#B3976B"/>
<circle cx="352.5" cy="136.907" r="1.5" fill="#B3976B"/>
<circle cx="379.5" cy="136.907" r="1.5" fill="#B3976B"/>
<circle cx="271.5" cy="163.907" r="1.5" fill="#B3976B"/>
<circle cx="298.5" cy="163.907" r="1.5" fill="#B3976B"/>
<circle cx="325.5" cy="163.907" r="1.5" fill="#B3976B"/>
<circle cx="352.5" cy="163.907" r="1.5" fill="#B3976B"/>
<circle cx="379.5" cy="163.907" r="1.5" fill="#B3976B"/>
<circle cx="271.5" cy="190.907" r="1.5" fill="#B3976B"/>
<circle cx="298.5" cy="190.907" r="1.5" fill="#B3976B"/>
<circle cx="325.5" cy="190.907" r="1.5" fill="#B3976B"/>
<circle cx="352.5" cy="190.907" r="1.5" fill="#B3976B"/>
<circle cx="379.5" cy="190.907" r="1.5" fill="#B3976B"/>
<circle cx="271.5" cy="217.907" r="1.5" fill="#B3976B"/>
<circle cx="298.5" cy="217.907" r="1.5" fill="#B3976B"/>
<circle cx="325.5" cy="217.907" r="1.5" fill="#B3976B"/>
<circle cx="352.5" cy="217.907" r="1.5" fill="#B3976B"/>
<circle cx="379.5" cy="217.907" r="1.5" fill="#B3976B"/>
<circle cx="271.5" cy="244.907" r="1.5" fill="#B3976B"/>
<circle cx="298.5" cy="244.907" r="1.5" fill="#B3976B"/>
<circle cx="325.5" cy="244.907" r="1.5" fill="#B3976B"/>
<circle cx="352.5" cy="244.907" r="1.5" fill="#B3976B"/>
<circle cx="379.5" cy="244.907" r="1.5" fill="#B3976B"/>
<circle cx="1.5" cy="271.907" r="1.5" fill="#B3976B"/>
<circle cx="28.5" cy="271.907" r="1.5" fill="#B3976B"/>
<circle cx="55.5" cy="271.907" r="1.5" fill="#B3976B"/>
<circle cx="82.5" cy="271.907" r="1.5" fill="#B3976B"/>
<circle cx="109.5" cy="271.907" r="1.5" fill="#B3976B"/>
<circle cx="136.5" cy="271.907" r="1.5" fill="#B3976B"/>
<circle cx="163.5" cy="271.907" r="1.5" fill="#B3976B"/>
<circle cx="190.5" cy="271.907" r="1.5" fill="#B3976B"/>
<circle cx="217.5" cy="271.907" r="1.5" fill="#B3976B"/>
<circle cx="244.5" cy="271.907" r="1.5" fill="#B3976B"/>
<circle cx="1.5" cy="298.907" r="1.5" fill="#B3976B"/>
<circle cx="28.5" cy="298.907" r="1.5" fill="#B3976B"/>
<circle cx="55.5" cy="298.907" r="1.5" fill="#B3976B"/>
<circle cx="82.5" cy="298.907" r="1.5" fill="#B3976B"/>
<circle cx="109.5" cy="298.907" r="1.5" fill="#B3976B"/>
<circle cx="136.5" cy="298.907" r="1.5" fill="#B3976B"/>
<circle cx="163.5" cy="298.907" r="1.5" fill="#B3976B"/>
<circle cx="190.5" cy="298.907" r="1.5" fill="#B3976B"/>
<circle cx="217.5" cy="298.907" r="1.5" fill="#B3976B"/>
<circle cx="244.5" cy="298.907" r="1.5" fill="#B3976B"/>
<circle cx="1.5" cy="325.907" r="1.5" fill="#B3976B"/>
<circle cx="28.5" cy="325.907" r="1.5" fill="#B3976B"/>
<circle cx="55.5" cy="325.907" r="1.5" fill="#B3976B"/>
<circle cx="82.5" cy="325.907" r="1.5" fill="#B3976B"/>
<circle cx="109.5" cy="325.907" r="1.5" fill="#B3976B"/>
<circle cx="136.5" cy="325.907" r="1.5" fill="#B3976B"/>
<circle cx="163.5" cy="325.907" r="1.5" fill="#B3976B"/>
<circle cx="190.5" cy="325.907" r="1.5" fill="#B3976B"/>
<circle cx="217.5" cy="325.907" r="1.5" fill="#B3976B"/>
<circle cx="244.5" cy="325.907" r="1.5" fill="#B3976B"/>
<circle cx="1.5" cy="352.907" r="1.5" fill="#B3976B"/>
<circle cx="28.5" cy="352.907" r="1.5" fill="#B3976B"/>
<circle cx="55.5" cy="352.907" r="1.5" fill="#B3976B"/>
<circle cx="82.5" cy="352.907" r="1.5" fill="#B3976B"/>
<circle cx="109.5" cy="352.907" r="1.5" fill="#B3976B"/>
<circle cx="136.5" cy="352.907" r="1.5" fill="#B3976B"/>
<circle cx="163.5" cy="352.907" r="1.5" fill="#B3976B"/>
<circle cx="190.5" cy="352.907" r="1.5" fill="#B3976B"/>
<circle cx="217.5" cy="352.907" r="1.5" fill="#B3976B"/>
<circle cx="244.5" cy="352.907" r="1.5" fill="#B3976B"/>
<circle cx="271.5" cy="271.907" r="1.5" fill="#B3976B"/>
<circle cx="298.5" cy="271.907" r="1.5" fill="#B3976B"/>
<circle cx="325.5" cy="271.907" r="1.5" fill="#B3976B"/>
<circle cx="352.5" cy="271.907" r="1.5" fill="#B3976B"/>
<circle cx="379.5" cy="271.907" r="1.5" fill="#B3976B"/>
<circle cx="271.5" cy="298.907" r="1.5" fill="#B3976B"/>
<circle cx="298.5" cy="298.907" r="1.5" fill="#B3976B"/>
<circle cx="325.5" cy="298.907" r="1.5" fill="#B3976B"/>
<circle cx="352.5" cy="298.907" r="1.5" fill="#B3976B"/>
<circle cx="379.5" cy="298.907" r="1.5" fill="#B3976B"/>
<circle cx="271.5" cy="325.907" r="1.5" fill="#B3976B"/>
<circle cx="298.5" cy="325.907" r="1.5" fill="#B3976B"/>
<circle cx="325.5" cy="325.907" r="1.5" fill="#B3976B"/>
<circle cx="352.5" cy="325.907" r="1.5" fill="#B3976B"/>
<circle cx="379.5" cy="325.907" r="1.5" fill="#B3976B"/>
<circle cx="271.5" cy="352.907" r="1.5" fill="#B3976B"/>
<circle cx="298.5" cy="352.907" r="1.5" fill="#B3976B"/>
<circle cx="325.5" cy="352.907" r="1.5" fill="#B3976B"/>
<circle cx="352.5" cy="352.907" r="1.5" fill="#B3976B"/>
<circle cx="379.5" cy="352.907" r="1.5" fill="#B3976B"/>
</g>
<defs>
<clipPath id="clip0_2220_93059">
<rect width="398.877" height="374.271" fill="white" transform="translate(0 0.407135)"/>
</clipPath>
</defs>
</svg>
