<?xml version="1.0" encoding="UTF-8"?>
<svg xmlns="http://www.w3.org/2000/svg" viewBox="0 0 28.7 30.36">
  <defs>
    <style>
      .cls-1 {
        fill: #fff;
      }

      .cls-2 {
        fill: #231f20;
      }
    </style>
  </defs>
  <g id="Layer_2" data-name="Layer 2">
    <rect class="cls-1" width="28.7" height="30.36"/>
  </g>
  <g id="Layer_1" data-name="Layer 1">
    <path class="cls-2" d="M13.46,10.1h2.72c.07,0,.15-.05.18-.13l.51-1.54c.03-.07.1-.13.18-.13h2.09c.07,0,.19.03.26.05l.67.28c.07.03.17,0,.23-.04l1.77-1.62c.05-.05.05-.12-.03-.14l-1.98-.83c-.07-.03-.14-.11-.14-.19l-.28-1.76c0-.07.04-.11.1-.08l1.98.83c.07.03.12,0,.1-.08l-.32-2.03c0-.07.02-.18.07-.23l.43-.45c.05-.05.05-.13-.03-.16l-.56-.32c-.06-.04-.17-.05-.24-.02l-2.69.97c-.07.03-.18.03-.25,0l-.79-.33c-.07-.03-.14,0-.16.07l-.11.32c-.03.07,0,.16.06.22l.4.32c.05.05.06.13,0,.18l-.26.26c-.05.05-.15.07-.22.05l-.81-.34c-.07-.03-.11-.11-.08-.18l.36-1.09c.03-.07,0-.15-.08-.18l-.51-.22c-.07-.03-.14,0-.16.07l-.5,1.51c-.03.07-.03.19,0,.26l.32,1.2c.02.07.02.19,0,.26l-1.1,3.36c-.03.07-.1.13-.18.13h-.6c-.07,0-.14.06-.16.14l-.28,1.53c0,.07.04.14.11.14v-.04Z"/>
    <path class="cls-2" d="M19.21,8.84h-1.78c-.07,0-.15.05-.18.13l-.32,1.01c-.03.07.02.13.09.13h2.39c.07,0,.13-.06.12-.14l-.15-1c0-.07-.08-.14-.15-.14h0Z"/>
    <path class="cls-2" d="M22.31,3.35c0,.07.07.11.14.07l.59-.32c.06-.04.08-.11.04-.17l-.49-.59c-.05-.05-.13-.06-.18,0l-.13.14c-.05.05-.08.15-.07.23l.11.66v-.02Z"/>
    <path class="cls-2" d="M22.45,4.18l.14.85c0,.07.08.15.14.19l1.46.61c.07.03.14.11.17.18l.15.39c.03.07.11.13.18.12l.34-.02c.07,0,.15-.06.18-.14l.48-1.46c.03-.07,0-.16-.06-.21l-.78-.59c-.06-.05-.12-.14-.13-.22l-.09-.91c0-.07-.06-.11-.14-.07l-1.95,1.07c-.06.04-.11.13-.1.2h0Z"/>
    <path class="cls-2" d="M27.23,4.35l-1.73-1.01c-.06-.04-.11,0-.1.06l.04.31c0,.07.06.17.12.22l.86.66c.05.05.09.14.06.21l-.72,2.19c-.03.07-.1.14-.17.14l-2.34.14c-.07,0-.16.06-.21.13l-1.15,1.87c-.04.06-.02.14.05.17l.52.22c.07.03.11.11.08.18l-.5,1.49c-.03.07-.1.11-.17.07l-1.37-.58c-.07-.03-.19-.05-.26-.05h-.47c-.07,0-.13.06-.12.14l.45,2.85c0,.07.07.16.14.2l1.97,1.11c.06.04.05.07-.02.07l-1.72.1c-.07,0-.16.06-.19.14l-1.67,3.77c-.03.07-.07.18-.08.25l-1.8,7.66c-.02.07,0,.18.05.24l.37.54c.05.06.02.11-.06.11h-.39c-.07,0-.17-.05-.21-.11l-.29-.43c-.05-.06-.06-.17-.05-.24l1.56-7.66c.02-.07,0-.19-.04-.25l-.76-1.47c-.04-.06-.02-.16.03-.23l2.48-2.87c.05-.05.08-.16.06-.23l-.56-3.57c0-.07-.08-.14-.15-.14h-5.33c-.07,0-.14.06-.14.14v.18c0,.07-.05.18-.1.23l-8.68,8.08c-.05.05-.16.09-.23.09h-1.14c-.07,0-.18.05-.23.09l-.58.54c-.05.05-.07.14-.03.21l1.07,1.85c.04.06.05.17.03.24l-2.02,5.79c-.03.07-.02.18.03.24l.2.35c.04.06.13.12.2.12h3.96c.07,0,.14-.06.16-.14l.09-.45c.02-.07,0-.18-.05-.24l-.83-1.14c-.05-.06-.02-.13.05-.14l5-1.51c.07-.02.09-.08.04-.14l-1.49-1.46c-.05-.05-.14-.06-.22-.03l-4.32,2.59c-.06.04-.14.13-.18.19l-.78,1.44c-.04.06-.13.12-.2.12h-.32c-.07,0-.11-.05-.08-.13l1.69-3.85c.03-.06.12-.14.19-.14l3.65-.6c.07,0,.14-.08.15-.15l.61-3.82c0-.07-.03-.17-.08-.23l-.76-.68c-.05-.05-.09-.14-.07-.23l.09-.45c.02-.07.07-.09.13-.05l1.34,1.18c.05.05.11.15.13.23l.94,5.63c0,.07.05.08.08,0l1.35-2.64c.04-.06.12-.11.2-.1l1.63.3c.07.02.15-.04.18-.1l.52-1.26c.03-.07.05-.18.03-.25l-1.1-6.6c0-.07.02-.08.06-.03l2.45,3.16c.05.05.06.16.03.23l-.91,2.18c-.03.07-.03.18,0,.24l.85,1.83c.03.06.05.18.03.25l-1.21,6.21c-.02.07,0,.19.05.25l.21.35c.04.06.13.12.2.12h3.91c.07,0,.15-.05.18-.13l.14-.45c.03-.07,0-.17-.05-.23l-1.48-1.85c-.05-.05-.05-.16-.03-.23l1.81-3.77c.04-.06.06-.18.07-.25l.34-2.78c0-.07.05-.18.1-.24l2.68-3.36c.05-.05.08-.16.08-.24l-.07-2.9c0-.07-.04-.18-.08-.24l-.23-.32c-.05-.06-.06-.17-.04-.23l.51-1.56c.03-.07,0-.18-.03-.24l-.31-.53c-.04-.06,0-.14.05-.17l3.3-1.45c.07-.03.14-.11.16-.18l.97-2.94c.03-.07,0-.16-.07-.2h0Z"/>
  </g>
</svg>